<?xml version="1.0" standalone="no"?>
<!DOCTYPE svg PUBLIC "-//W3C//DTD SVG 20010904//EN"
 "http://www.w3.org/TR/2001/REC-SVG-20010904/DTD/svg10.dtd">
<svg version="1.0" xmlns="http://www.w3.org/2000/svg"
 width="814.000000pt" height="814.000000pt" viewBox="0 0 814.000000 814.000000"
 preserveAspectRatio="xMidYMid meet">
<metadata>
Created by potrace 1.14, written by Peter Selinger 2001-2017
</metadata>
<g transform="translate(0.000000,814.000000) scale(0.100000,-0.100000)"
fill="#000000" stroke="none">
<path d="M4043 8097 c-76 -145 -82 -229 -20 -278 21 -17 65 -16 99 2 36 19 49
147 19 183 -5 6 -9 15 -9 19 -1 14 -43 95 -55 106 -9 7 -18 -1 -34 -32z"/>
<path d="M3886 7827 c-24 -17 -16 -44 30 -99 42 -49 66 -96 83 -159 23 -84 10
-89 -38 -16 -24 37 -56 77 -70 88 -68 54 -161 60 -161 10 0 -21 35 -61 54 -61
38 0 156 -141 156 -186 0 -14 -10 -8 -42 23 -55 52 -119 88 -188 105 -56 14
-63 14 -138 4 -129 -18 -260 -148 -314 -312 -12 -38 -21 -73 -20 -77 1 -5 -2
-6 -7 -2 -15 8 -7 82 14 140 11 31 16 61 12 77 -7 26 -17 29 -68 19 -12 -2
-44 -36 -48 -51 -2 -8 -6 -42 -9 -75 -2 -33 -6 -62 -8 -64 -2 -2 -31 24 -64
59 -34 34 -64 59 -67 57 -3 -3 -16 -2 -30 4 -32 12 -63 -5 -63 -34 0 -25 14
-39 82 -82 27 -17 48 -33 48 -37 0 -11 -8 -10 -33 4 -52 28 -206 30 -272 3
-35 -14 -84 -75 -106 -133 -29 -73 -31 -221 -4 -297 22 -65 68 -158 85 -175
43 -42 167 -279 154 -293 -11 -11 20 -57 35 -53 9 3 39 8 66 12 28 3 58 8 67
10 17 3 120 14 186 19 20 2 37 4 37 5 0 1 20 3 45 5 25 1 77 6 115 10 74 7
137 11 330 21 219 12 668 6 860 -10 33 -3 96 -8 140 -12 44 -3 96 -7 115 -10
19 -2 62 -6 95 -9 33 -3 76 -8 95 -10 19 -3 60 -8 90 -10 30 -3 70 -10 88 -16
41 -14 62 -6 62 23 1 45 58 165 131 278 72 109 107 176 101 193 -1 4 3 7 10 7
6 0 9 2 6 5 -3 3 1 31 8 62 12 53 12 146 0 203 -11 49 -58 131 -89 154 -60 44
-171 54 -281 26 l-70 -19 30 24 c16 13 35 24 42 25 6 0 12 5 12 12 0 6 3 9 6
6 3 -3 17 5 31 18 22 21 25 29 17 51 -19 53 -92 29 -172 -56 l-54 -56 3 37 c2
20 0 40 -3 43 -4 4 -4 14 -1 22 10 25 -27 91 -59 104 -55 23 -88 -27 -59 -86
19 -36 21 -46 28 -110 4 -45 3 -48 -9 -30 -8 11 -20 42 -26 70 -7 27 -16 52
-20 55 -4 3 -17 25 -30 50 -21 42 -103 140 -117 140 -4 0 -13 6 -21 14 -49 49
-213 74 -286 43 -21 -9 -38 -14 -38 -12 0 9 -97 -57 -131 -90 -20 -19 -39 -32
-42 -28 -10 9 41 94 81 136 21 21 56 48 80 59 49 23 66 61 37 82 -17 12 -34
13 -84 2 -37 -8 -86 -51 -122 -108 -54 -86 -63 -91 -55 -34 10 63 45 143 83
187 33 37 53 71 53 89 0 15 -47 31 -74 24 -36 -9 -90 -65 -114 -119 l-13 -29
-18 39 c-40 89 -118 136 -165 102z m-137 -436 c48 -25 151 -118 151 -137 0 -9
-13 -14 -40 -15 -58 -2 -57 -2 -94 -31 -67 -54 -64 -160 5 -223 38 -34 52 -38
111 -38 51 1 106 61 93 102 -8 27 -48 28 -77 1 -12 -11 -31 -20 -43 -20 -81 0
-44 121 38 123 87 2 131 -114 80 -219 l-19 -39 28 -23 c27 -22 38 -52 19 -52
-4 0 -25 13 -46 30 -44 35 -84 44 -162 37 -75 -7 -107 -20 -144 -58 -69 -71
-76 -171 -16 -241 31 -36 113 -78 151 -78 45 0 120 40 124 66 2 11 -4 26 -11
33 -20 16 -55 22 -62 11 -11 -18 -77 -30 -99 -18 -38 20 -50 40 -49 79 1 47
23 83 66 109 42 26 90 25 144 -1 108 -52 105 -158 -7 -282 -70 -76 -118 -101
-195 -101 -94 1 -176 49 -248 147 -32 42 -84 149 -91 187 -23 123 -24 137 -17
233 2 29 47 67 79 67 31 0 69 -26 72 -50 7 -44 -4 -69 -45 -112 -46 -48 -66
-101 -59 -163 5 -50 66 -74 80 -32 8 22 9 33 12 91 2 21 17 42 57 80 62 57 73
92 50 160 -28 80 -91 121 -172 113 l-53 -6 6 27 c4 15 10 34 15 43 5 9 5 19 2
23 -3 3 -1 6 5 6 7 0 12 6 12 13 0 17 85 123 115 143 68 45 163 51 234 15z
m842 5 c66 -27 168 -164 182 -243 l6 -33 -57 6 c-69 6 -106 -13 -149 -77 -22
-33 -27 -52 -26 -92 1 -48 4 -54 57 -102 31 -29 57 -59 57 -69 1 -9 2 -34 3
-57 1 -28 7 -45 20 -55 26 -18 32 -18 54 6 14 15 18 33 16 69 -3 58 -13 80
-64 135 -21 23 -39 48 -40 56 -5 36 1 61 22 80 43 40 105 17 125 -45 9 -27 9
-147 0 -185 -64 -271 -248 -433 -423 -374 -37 12 -66 34 -116 86 -38 39 -68
76 -68 83 0 7 -4 15 -10 17 -5 2 -11 24 -14 50 -9 92 52 151 156 152 47 1 61
-4 84 -24 81 -75 59 -175 -41 -185 -5 -1 -27 7 -48 17 -36 18 -41 18 -63 3
-43 -28 -25 -70 42 -93 125 -42 270 74 250 201 -17 106 -99 165 -228 165 -72
0 -99 -9 -140 -43 -16 -14 -34 -25 -39 -25 -19 0 -8 30 20 51 l28 21 -20 41
c-57 117 13 252 112 216 11 -5 30 -23 40 -40 18 -29 18 -34 4 -55 -19 -29 -52
-31 -81 -4 -27 25 -71 27 -74 3 -4 -52 6 -69 57 -95 102 -53 229 70 191 183
-22 63 -69 99 -130 99 -19 0 -38 5 -42 12 -9 14 90 109 139 135 65 33 142 37
208 9z m-1636 -334 c19 -11 19 -13 2 -23 -58 -35 -72 -55 -70 -109 4 -94 56
-169 129 -185 54 -12 99 -38 129 -76 41 -51 68 -63 89 -40 44 49 -21 136 -129
171 -46 15 -101 45 -122 66 -25 24 -9 79 27 94 42 17 79 0 136 -63 122 -136
170 -318 115 -443 -40 -91 -133 -116 -243 -64 -85 40 -208 174 -258 283 -41
86 -43 98 -44 197 -1 73 3 91 24 128 32 56 78 81 145 78 28 -1 59 -7 70 -14z
m2383 -1 c2 -6 8 -11 14 -11 20 0 56 -53 68 -99 14 -57 11 -143 -8 -201 -25
-75 -36 -100 -44 -100 -5 0 -8 -7 -8 -15 0 -40 -168 -213 -240 -246 -173 -82
-295 37 -256 249 18 95 67 191 134 264 47 51 86 71 121 63 40 -9 53 -37 42
-97 -1 -10 -55 -39 -119 -64 -110 -43 -179 -125 -142 -169 22 -26 48 -16 102
39 31 32 65 57 83 61 115 25 166 86 167 201 1 33 -5 50 -22 69 -13 14 -29 25
-36 25 -23 0 -25 30 -1 39 31 12 140 6 145 -8z"/>
<path d="M2986 7512 c-2 -4 -3 -42 -2 -84 3 -80 18 -118 55 -138 26 -14 67 3
76 30 15 46 -4 86 -65 143 -33 31 -61 53 -64 49z"/>
<path d="M5080 7452 c-51 -49 -60 -64 -60 -93 0 -43 16 -65 51 -71 33 -6 55
10 73 53 14 36 18 169 5 169 -5 0 -35 -26 -69 -58z"/>
<path d="M3815 6262 c-2 -2 -62 -5 -134 -6 -73 -2 -134 -5 -136 -8 -2 -2 6
-15 18 -28 24 -27 48 -85 42 -103 -2 -7 -6 -24 -9 -38 l-6 -27 108 5 c59 2
141 5 182 6 41 2 76 6 78 10 1 4 -5 19 -14 33 -22 32 -24 80 -7 123 7 18 13
34 13 35 0 3 -132 1 -135 -2z"/>
<path d="M4208 6262 c-20 -4 -23 -13 -9 -27 27 -27 17 -108 -17 -147 -13 -15
-13 -18 -1 -19 33 -2 172 -8 270 -12 l107 -4 -14 32 c-15 38 -5 88 26 128 11
14 20 29 20 34 0 4 -48 9 -108 10 -59 1 -141 3 -182 5 -41 2 -83 2 -92 0z"/>
<path d="M4044 6250 c-65 -25 -64 -115 3 -141 39 -15 73 0 89 37 27 64 -28
127 -92 104z"/>
<path d="M2335 6228 c-17 -4 -43 -10 -60 -13 -16 -3 -38 -8 -47 -11 -9 -3 -25
-7 -35 -9 -39 -8 -195 -67 -203 -76 -3 -3 -21 -14 -40 -24 -62 -32 -134 -90
-243 -198 -124 -122 -178 -200 -196 -283 -17 -75 -30 -101 -104 -199 -66 -87
-125 -150 -132 -143 -3 3 13 54 36 114 76 200 107 375 85 479 -8 35 -42 110
-59 131 -48 57 -54 57 -103 -3 -21 -27 -42 -49 -46 -51 -5 -2 -8 -7 -8 -12 0
-4 -18 -35 -40 -68 -22 -33 -40 -65 -40 -71 0 -6 -4 -11 -10 -11 -5 0 -9 -3
-8 -7 1 -5 -3 -17 -9 -28 -26 -49 -73 -175 -83 -227 -15 -75 -14 -186 1 -247
13 -50 60 -120 105 -157 l51 -41 -20 -39 c-11 -21 -23 -41 -26 -44 -11 -9
-114 -212 -166 -327 -16 -35 -32 -63 -35 -63 -4 0 -1 42 5 93 16 113 14 97 19
247 4 105 1 135 -16 190 -24 77 -65 134 -132 184 -45 33 -50 35 -66 21 -27
-24 -76 -122 -99 -199 -39 -127 -49 -197 -45 -320 6 -227 40 -303 178 -396 70
-47 74 -57 56 -119 -11 -40 -51 -226 -55 -261 -14 -107 -33 -196 -40 -188 -2
2 -8 30 -14 63 -6 33 -15 85 -20 115 -5 30 -12 71 -16 90 -3 19 -8 43 -11 52
-3 9 -6 25 -8 35 -16 79 -106 262 -130 263 -5 0 -17 6 -25 14 -20 18 -99 61
-128 70 -19 6 -22 1 -33 -46 -6 -29 -15 -73 -18 -98 -9 -62 -8 -296 1 -345 23
-121 64 -231 105 -280 46 -54 209 -155 251 -155 19 0 25 -53 37 -305 9 -192 8
-229 -5 -221 -4 3 -16 27 -25 53 -90 248 -170 376 -298 469 -56 41 -186 81
-194 60 -5 -14 2 -128 11 -166 3 -14 8 -43 10 -65 14 -108 101 -332 154 -399
53 -65 75 -85 121 -110 58 -32 165 -64 222 -68 46 -2 53 -10 61 -63 14 -96 36
-181 83 -319 24 -71 42 -131 40 -133 -2 -2 -26 29 -52 69 -56 83 -54 81 -128
168 -65 77 -84 95 -151 142 -99 70 -157 89 -285 92 -33 0 -35 -1 -32 -29 7
-82 63 -228 130 -341 48 -82 175 -217 228 -244 16 -8 31 -17 34 -21 14 -15 91
-44 150 -55 42 -8 189 -8 197 0 3 3 29 -41 57 -97 29 -56 78 -143 109 -194 31
-50 57 -96 57 -102 0 -6 4 -11 8 -11 4 0 15 -13 25 -29 33 -56 27 -52 -95 62
-26 24 -67 57 -90 73 -24 16 -45 31 -48 34 -7 8 -101 63 -125 74 -72 30 -157
57 -198 62 -51 7 -177 -21 -177 -38 0 -6 19 -47 42 -91 35 -68 63 -102 160
-199 65 -64 127 -119 138 -123 11 -3 20 -10 20 -14 0 -13 156 -81 207 -90 76
-15 179 -6 270 22 l53 16 92 -102 c51 -56 138 -146 193 -200 86 -86 94 -96 60
-79 -272 135 -416 184 -545 185 -99 1 -205 -26 -224 -56 -13 -20 13 -49 129
-145 44 -37 85 -72 90 -78 23 -26 211 -122 249 -128 6 -1 17 -5 24 -10 7 -4
16 -5 19 -2 3 3 13 1 23 -4 27 -15 109 -25 195 -24 66 0 90 5 138 28 31 15 70
39 86 52 l29 24 108 -73 c60 -41 134 -91 164 -111 30 -21 85 -53 122 -72 36
-18 70 -39 74 -45 5 -9 2 -10 -12 -5 -10 5 -28 10 -39 12 -11 2 -75 15 -143
29 -68 14 -144 28 -170 30 -91 10 -237 7 -281 -5 -71 -19 -177 -95 -163 -116
16 -24 188 -118 299 -163 206 -84 351 -95 522 -42 58 18 106 50 177 118 l31
30 54 -17 c30 -10 72 -26 94 -36 22 -9 45 -19 50 -21 6 -1 62 -18 125 -37 63
-20 135 -40 159 -46 23 -6 40 -14 37 -17 -3 -3 -72 -7 -153 -9 -81 -1 -172 -5
-202 -8 -53 -6 -69 -8 -151 -22 -57 -10 -141 -54 -202 -107 -83 -72 -86 -94
-13 -116 240 -75 243 -75 405 -76 192 0 333 29 429 89 39 25 84 84 96 126 4
14 12 31 17 37 11 13 18 13 98 -6 25 -5 73 -12 107 -15 148 -13 213 -26 282
-57 48 -22 71 -19 71 9 0 34 -45 56 -135 68 -22 3 -46 7 -54 10 -7 2 -41 7
-75 10 -33 3 -92 13 -131 21 -38 8 -81 17 -95 19 -38 8 -50 22 -40 49 5 13 7
43 5 67 -13 126 -57 209 -174 326 -60 60 -194 166 -211 167 -8 1 -74 37 -80
44 -14 18 -81 61 -93 61 -24 0 -38 -60 -38 -160 0 -66 2 -79 16 -115 22 -57
31 -75 37 -75 5 0 8 -6 8 -13 0 -27 152 -169 248 -232 75 -49 55 -45 -228 45
-30 10 -95 37 -144 59 l-88 42 8 47 c20 121 6 259 -34 320 -8 12 -11 22 -8 22
14 0 -117 181 -181 250 -142 154 -140 152 -160 146 -46 -15 -94 -167 -87 -275
5 -73 54 -185 109 -247 24 -27 45 -54 45 -58 0 -2 20 -25 45 -51 25 -27 43
-50 41 -52 -4 -5 -110 59 -114 70 -2 4 -8 7 -14 7 -6 0 -44 20 -85 45 -40 25
-78 45 -83 45 -4 0 -10 3 -12 8 -1 4 -23 23 -48 42 -24 19 -57 46 -72 60 l-28
26 27 39 c43 64 59 200 39 328 -12 74 -52 180 -113 298 -78 151 -101 182 -127
167 -40 -23 -112 -124 -123 -173 -1 -5 -6 -24 -12 -42 -29 -96 15 -278 105
-431 14 -24 23 -46 20 -49 -8 -9 -204 194 -286 296 -19 25 -41 50 -48 58 -7 7
-10 13 -5 13 4 0 0 5 -10 11 -18 10 -16 14 17 41 41 33 76 95 100 177 19 64
19 316 0 420 -11 62 -64 205 -84 225 -13 13 -90 -36 -133 -83 -36 -40 -83
-121 -71 -121 4 0 2 -6 -4 -13 -38 -46 -29 -276 17 -424 16 -53 -1 -38 -51 45
-74 123 -208 370 -208 383 0 4 16 13 35 19 77 25 190 204 221 350 21 98 24
433 4 445 -9 6 -76 -13 -125 -35 -58 -26 -119 -89 -153 -157 -46 -91 -63 -167
-68 -313 -1 -47 -3 -89 -3 -95 -3 -24 -33 52 -57 140 -18 67 -55 213 -59 229
-2 12 -10 45 -18 73 -15 58 -14 63 18 63 12 0 25 3 29 7 3 4 12 8 19 9 53 8
114 54 175 131 54 69 197 392 191 430 -1 4 0 10 1 13 1 3 3 23 5 45 3 22 7 52
9 68 5 25 3 27 -26 27 -50 0 -158 -21 -158 -31 0 -5 -7 -9 -16 -9 -18 0 -92
-49 -114 -77 -34 -40 -78 -111 -102 -163 -25 -53 -35 -85 -58 -177 -14 -58
-25 -54 -26 10 -1 28 -4 144 -7 256 -3 111 -3 201 -1 198 4 -4 63 8 139 27 43
12 145 58 145 67 0 4 8 10 19 14 47 15 144 138 226 287 91 166 109 208 98 219
-15 15 -119 23 -187 15 -130 -17 -281 -154 -373 -339 -20 -42 -40 -74 -44 -71
-12 7 18 183 46 272 3 7 4 13 4 15 0 1 11 34 24 72 13 39 25 75 26 80 1 6 6
24 12 40 l11 30 86 -1 c134 -2 211 25 351 124 110 78 321 300 321 338 0 7 -19
21 -42 33 -38 18 -57 20 -153 17 -84 -2 -121 -8 -157 -24 -27 -12 -48 -19 -48
-15 0 3 -15 -6 -34 -21 -19 -14 -38 -26 -43 -26 -13 -1 -128 -122 -158 -167
-15 -24 -31 -40 -36 -38 -23 15 89 270 160 365 20 27 44 60 54 74 l19 25 46
-20 c83 -36 246 -30 367 14 71 26 232 108 245 126 3 3 19 15 35 25 31 20 114
87 147 119 18 17 17 18 -11 46 -48 47 -112 66 -221 66 -52 0 -108 -3 -125 -7
-41 -8 -129 -39 -135 -47 -3 -3 -18 -13 -35 -21 -30 -15 -91 -52 -110 -68 -28
-22 -85 -53 -85 -45 1 12 47 71 125 159 110 123 106 120 164 128 73 10 242 77
331 132 194 119 354 297 454 503 20 41 36 76 36 78 0 6 -73 0 -105 -9z"/>
<path d="M5700 6236 c0 -9 65 -135 98 -191 64 -105 179 -234 270 -303 20 -15
43 -33 50 -39 58 -56 316 -170 406 -180 55 -7 53 -6 156 -122 36 -41 70 -79
75 -85 23 -25 55 -69 55 -77 0 -7 -98 48 -110 62 -16 20 -173 95 -229 110
-101 28 -240 22 -312 -14 -31 -15 -64 -36 -73 -46 -17 -18 -16 -21 19 -53 147
-134 359 -251 515 -285 82 -18 232 -5 286 25 18 9 25 5 60 -41 69 -89 130
-198 175 -312 28 -71 27 -138 -1 -84 -18 33 -40 59 -105 124 -108 109 -215
153 -371 153 -83 0 -115 -7 -161 -38 -22 -14 -21 -14 30 -79 47 -61 186 -205
233 -241 55 -44 123 -86 192 -118 73 -33 83 -35 184 -36 l107 -1 30 -95 c44
-140 74 -243 76 -260 1 -8 5 -35 9 -60 4 -25 10 -57 12 -72 8 -50 -10 -30 -58
65 -26 50 -58 104 -70 118 -13 15 -34 40 -48 56 -52 62 -166 135 -233 149 -48
10 -146 4 -200 -12 -16 -5 -16 -7 2 -42 172 -324 214 -386 306 -457 71 -54
172 -95 276 -113 l44 -8 -1 -99 c-3 -235 -8 -396 -14 -405 -3 -6 -16 30 -29
80 -12 49 -34 113 -48 142 -30 62 -94 157 -120 178 -74 61 -144 90 -240 97
-56 5 -61 4 -58 -13 2 -11 6 -41 9 -69 10 -109 32 -174 120 -357 52 -110 79
-151 141 -211 32 -31 98 -66 127 -67 9 0 28 -5 40 -11 l23 -10 -26 -107 c-50
-199 -78 -301 -89 -322 -6 -11 -9 -24 -6 -29 3 -4 -1 -17 -9 -27 -17 -22 -16
-25 -20 91 -5 144 -21 218 -65 305 -49 95 -103 142 -200 177 -79 28 -84 26
-89 -32 -7 -85 -5 -297 3 -350 23 -160 145 -365 234 -396 32 -11 40 -26 23
-44 -4 -6 -28 -48 -52 -95 -24 -47 -61 -113 -81 -147 -21 -35 -38 -65 -38 -68
0 -9 -54 -90 -62 -93 -5 -2 -8 -10 -8 -18 0 -8 -4 -14 -9 -14 -6 0 -6 13 0 33
6 17 12 40 14 50 2 10 7 26 9 35 10 32 18 107 18 172 0 108 -15 175 -56 245
-28 47 -124 137 -138 129 -4 -3 -8 -1 -8 4 0 5 -7 9 -16 9 -19 0 -68 -102 -89
-186 -22 -81 -32 -286 -21 -395 10 -91 80 -246 112 -246 6 0 16 -6 22 -13 11
-12 -3 -32 -126 -177 -62 -72 -223 -232 -229 -227 -3 4 19 50 47 97 23 38 67
154 78 205 14 60 5 178 -17 235 -25 66 -98 159 -125 159 -10 1 -27 -8 -37 -20
-24 -28 -167 -316 -173 -349 -3 -14 -7 -36 -10 -50 -35 -156 -27 -273 24 -367
l27 -52 -26 -23 c-64 -56 -120 -98 -130 -98 -6 0 -11 -4 -11 -8 0 -5 -18 -17
-40 -27 -22 -10 -40 -22 -40 -27 0 -4 -5 -8 -12 -8 -6 0 -43 -20 -82 -44 -82
-50 -116 -69 -116 -62 0 2 19 24 41 48 92 96 181 235 193 301 3 12 5 22 7 22
1 0 3 20 4 45 2 51 -11 140 -27 179 -6 14 -12 29 -12 33 -2 14 -47 58 -60 58
-7 0 -31 -19 -51 -42 -21 -24 -63 -70 -94 -104 -80 -87 -95 -105 -136 -169
-44 -69 -80 -147 -90 -195 -14 -64 -13 -169 1 -222 7 -29 12 -53 11 -53 -76
-44 -278 -124 -350 -139 -7 -2 -19 -6 -27 -9 -41 -17 -121 -39 -125 -35 -3 3
25 25 63 51 102 70 205 174 250 255 51 92 44 322 -11 322 -5 0 -29 -16 -52
-35 -23 -19 -55 -40 -71 -47 -110 -47 -289 -205 -364 -321 -51 -77 -81 -207
-60 -262 13 -33 5 -38 -90 -60 -7 -2 -136 -23 -180 -30 -19 -3 -53 -8 -75 -10
-122 -14 -185 -41 -185 -79 0 -25 30 -26 88 -2 71 30 133 42 254 51 69 5 111
12 160 27 39 11 68 0 68 -26 0 -19 41 -90 65 -113 54 -52 134 -82 289 -109 93
-16 275 -17 331 -3 17 5 41 10 55 13 114 24 250 74 250 92 0 8 -25 39 -57 69
-76 75 -169 118 -278 130 -11 1 -47 5 -80 9 -33 4 -129 9 -213 11 -85 2 -156
5 -158 7 -2 2 29 12 69 22 39 10 81 22 92 27 11 5 31 11 45 13 14 3 25 5 25 5
0 1 36 14 80 30 44 16 110 41 147 55 l67 25 48 -45 c91 -86 134 -106 273 -130
112 -20 255 0 380 53 8 3 17 7 20 8 38 12 195 89 208 102 7 7 18 13 23 13 8 0
39 20 89 58 15 12 -115 97 -171 112 -42 11 -227 15 -279 6 -14 -3 -43 -7 -65
-11 -22 -3 -82 -15 -135 -26 -52 -11 -106 -22 -120 -25 -14 -2 -31 -7 -38 -9
-35 -13 7 19 61 46 34 17 99 56 145 87 45 32 117 81 159 109 81 56 97 61 122
39 84 -72 225 -100 361 -72 191 40 298 94 452 226 143 123 155 136 142 158
-26 40 -201 67 -313 48 -79 -13 -219 -64 -349 -127 -70 -34 -131 -64 -137 -67
-5 -3 45 50 112 119 67 68 155 159 195 201 l73 77 60 -21 c45 -15 86 -20 160
-20 55 -1 107 2 115 4 79 25 174 74 230 119 134 106 234 218 283 314 45 89 45
88 -25 109 -74 22 -128 18 -230 -19 -144 -52 -276 -140 -421 -282 -23 -23 -35
-30 -31 -19 7 17 102 176 121 201 14 19 47 79 93 170 31 61 50 89 60 86 32 -8
178 -3 220 9 57 15 148 60 186 91 34 28 122 117 145 146 32 39 105 168 127
223 25 62 64 211 58 218 -6 5 -37 6 -106 2 -124 -7 -269 -104 -392 -260 -71
-91 -69 -88 -92 -125 -11 -16 -23 -34 -28 -40 -5 -5 -16 -19 -24 -30 l-15 -20
4 20 c3 11 19 58 36 105 43 122 72 229 86 325 9 58 22 71 82 78 49 7 86 14 91
17 3 3 13 6 50 15 17 4 32 11 32 15 0 4 12 11 26 14 87 22 233 271 268 456 3
14 9 47 15 75 5 27 7 53 5 57 -3 5 -2 8 3 8 9 0 17 135 9 149 -9 13 -123 -17
-167 -45 -128 -81 -212 -198 -295 -412 -48 -122 -63 -150 -65 -116 -4 91 16
463 27 496 3 10 11 18 17 18 7 0 48 18 92 40 128 64 185 129 229 262 34 104
39 144 39 318 0 106 -5 178 -16 229 -9 41 -18 76 -21 78 -8 8 -121 -50 -164
-84 -34 -28 -84 -98 -87 -123 0 -3 -3 -9 -6 -15 -6 -10 -33 -85 -34 -95 0 -3
-4 -11 -8 -17 -5 -7 -6 -13 -3 -13 3 0 1 -11 -4 -26 -6 -14 -12 -43 -15 -66
-3 -22 -7 -44 -10 -48 -3 -4 -7 -25 -10 -46 -20 -161 -37 -206 -48 -124 -3 19
-6 35 -7 35 -1 0 -3 16 -5 35 -3 36 -13 94 -20 120 -2 8 -7 29 -10 45 -8 51
-13 73 -29 136 -24 93 -22 104 27 132 99 59 167 141 182 224 2 15 7 39 10 53
15 67 12 258 -6 340 -28 135 -78 258 -126 312 -18 20 -35 14 -86 -30 -71 -63
-100 -109 -123 -194 -11 -45 -12 -254 0 -333 2 -16 7 -59 11 -95 4 -36 9 -68
12 -72 2 -5 0 -8 -5 -8 -4 0 -19 24 -32 53 -53 117 -88 188 -152 301 l-67 120
27 20 c110 84 138 142 144 296 6 171 -100 418 -260 608 l-45 53 -29 -28 c-67
-64 -107 -202 -87 -306 4 -23 10 -58 13 -77 9 -58 55 -209 88 -287 17 -41 27
-77 24 -80 -8 -8 -63 51 -136 147 -71 94 -75 100 -100 194 -25 94 -64 151
-199 284 -113 113 -127 125 -202 174 -76 50 -203 107 -278 123 -9 2 -56 13
-106 24 -84 19 -145 26 -145 17z"/>
<path d="M3220 6215 c-47 -7 -107 -15 -135 -19 -27 -3 -70 -9 -95 -13 -25 -4
-50 -6 -57 -5 -24 5 -22 -18 9 -84 18 -38 32 -73 32 -79 1 -11 45 -12 116 -2
25 3 70 9 100 13 30 4 62 8 70 10 8 1 32 3 52 3 l38 1 -20 39 c-24 45 -29 131
-8 131 4 0 8 5 8 10 0 12 1 12 -110 -5z"/>
<path d="M3430 6223 c-31 -12 -50 -37 -50 -67 1 -102 149 -105 150 -3 0 50
-53 87 -100 70z"/>
<path d="M4633 6203 c-27 -26 -29 -69 -5 -100 52 -66 162 4 124 79 -25 52 -79
61 -119 21z"/>
<path d="M4810 6225 c0 -3 6 -18 14 -33 16 -33 11 -77 -15 -113 -22 -32 -23
-36 -6 -36 37 -2 164 -15 175 -19 11 -3 104 -14 161 -18 9 -1 27 24 47 64 45
91 46 104 9 106 -16 2 -75 9 -130 17 -55 9 -118 18 -140 21 -22 3 -57 8 -77
11 -21 3 -38 3 -38 0z"/>
<path d="M3805 6022 c-2 -2 -59 -6 -127 -8 -68 -2 -162 -6 -209 -9 -47 -2
-128 -7 -180 -10 -181 -10 -215 -14 -252 -30 -48 -20 -57 -42 -28 -66 18 -15
36 -18 89 -15 37 2 74 7 82 10 96 38 1608 39 1770 1 59 -13 146 -15 170 -2 34
17 36 42 7 62 -39 25 -52 27 -262 39 -55 3 -144 9 -198 12 -55 4 -141 7 -193
8 -52 0 -94 5 -94 9 0 5 -5 5 -12 1 -6 -4 -30 -6 -52 -5 -80 4 -508 6 -511 3z"/>
<path d="M3554 4721 c-2 -3 -287 -5 -633 -6 -345 -1 -633 -5 -639 -8 -5 -4 -9
-15 -7 -25 2 -9 4 -23 4 -30 2 -22 66 -41 158 -47 166 -11 227 -60 424 -339
19 -26 39 -56 44 -65 18 -29 70 -96 78 -99 4 -2 7 -10 7 -17 0 -8 6 -20 13
-27 17 -17 131 -179 146 -206 6 -11 17 -26 24 -34 7 -7 39 -51 72 -98 32 -47
61 -87 65 -90 8 -8 70 -100 70 -105 0 -3 7 -13 16 -22 26 -30 224 -313 224
-322 0 -5 7 -11 15 -15 8 -3 15 -12 15 -20 0 -8 4 -16 8 -18 4 -1 32 -39 62
-83 30 -44 61 -87 69 -95 23 -23 69 -131 76 -175 7 -53 17 -861 10 -901 -10
-56 -86 -116 -165 -129 -19 -3 -61 -10 -92 -16 -32 -5 -70 -12 -85 -15 -16 -2
-44 -7 -63 -10 -19 -4 -44 -8 -55 -9 -66 -6 -126 -18 -131 -27 -13 -20 -14
-71 -3 -84 8 -10 30 -12 82 -8 39 3 74 7 79 10 4 3 8 1 8 -5 0 -7 9 -8 23 -3
26 9 983 9 992 0 4 -3 18 -3 33 1 15 4 42 4 60 0 17 -4 35 -3 38 2 3 5 10 7
15 4 5 -4 65 -7 135 -8 100 -1 127 2 135 13 9 16 4 80 -9 92 -8 8 -43 14 -127
23 -183 19 -226 25 -280 37 -77 17 -109 34 -144 74 l-32 36 5 541 c4 410 8
552 18 582 12 36 62 123 78 135 3 3 19 23 36 45 16 22 32 44 37 50 4 5 28 37
53 70 25 33 50 67 57 75 7 8 39 51 72 95 32 44 63 82 67 83 4 2 8 10 8 17 0 7
3 15 8 17 4 2 41 48 82 103 41 55 77 102 80 105 3 3 99 131 215 285 220 294
306 392 414 473 65 49 90 58 219 83 86 16 125 55 101 100 -9 18 -17 19 -92 13
-45 -4 -102 -8 -127 -10 -75 -5 -598 -4 -720 2 -63 3 -124 5 -135 6 -62 3 -65
1 -65 -47 0 -61 9 -64 220 -80 218 -17 284 -75 221 -197 -12 -24 -71 -110
-131 -193 -60 -82 -118 -161 -127 -174 -10 -13 -23 -29 -28 -35 -6 -6 -39 -51
-75 -101 -35 -49 -68 -94 -73 -100 -4 -5 -109 -147 -233 -315 -124 -168 -234
-316 -244 -330 -11 -13 -20 -28 -20 -32 0 -34 -58 41 -280 364 -140 204 -261
377 -267 384 -7 7 -13 17 -13 23 0 6 -4 11 -10 11 -5 0 -10 5 -10 10 0 6 -17
34 -38 63 -21 29 -69 97 -107 152 -38 55 -73 105 -77 110 -5 6 -19 26 -31 45
-13 19 -49 72 -80 118 -31 45 -57 91 -57 102 0 31 46 57 138 79 105 24 156 32
242 36 74 4 88 16 86 72 l-1 37 -73 1 c-41 0 -76 -2 -78 -4z"/>
</g>
</svg>
