<svg width="35" height="55" viewBox="0 0 35 55" fill="none" xmlns="http://www.w3.org/2000/svg">
<path d="M2.34375 0.8125C2.84932 0.8125 3.33418 1.01334 3.69167 1.37083C4.04916 1.72832 4.25 2.21318 4.25 2.71875V14.1562C4.24938 15.3394 4.61573 16.4936 5.29854 17.4597C5.98137 18.4259 6.94705 19.1566 8.0625 19.5509V2.71875C8.0625 2.21318 8.26334 1.72832 8.62083 1.37083C8.97832 1.01334 9.46318 0.8125 9.96875 0.8125C10.4743 0.8125 10.9592 1.01334 11.3167 1.37083C11.6742 1.72832 11.875 2.21318 11.875 2.71875V19.5509C12.9905 19.1566 13.9561 18.4259 14.639 17.4597C15.3218 16.4936 15.6881 15.3394 15.6875 14.1562V2.71875C15.6875 2.21318 15.8883 1.72832 16.2458 1.37083C16.6033 1.01334 17.0882 0.8125 17.5938 0.8125C18.0993 0.8125 18.5842 1.01334 18.9417 1.37083C19.2992 1.72832 19.5 2.21318 19.5 2.71875V14.1562C19.5004 16.3535 18.7417 18.4834 17.3522 20.1855C15.9628 21.8877 14.0279 23.0574 11.875 23.4969V52.2812C11.875 52.7868 11.6742 53.2717 11.3167 53.6292C10.9592 53.9867 10.4743 54.1875 9.96875 54.1875C9.46318 54.1875 8.97832 53.9867 8.62083 53.6292C8.26334 53.2717 8.0625 52.7868 8.0625 52.2812V23.4969C5.90965 23.0574 3.97475 21.8877 2.58526 20.1855C1.19577 18.4834 0.437052 16.3535 0.4375 14.1562V2.71875C0.4375 2.21318 0.638337 1.72832 0.995828 1.37083C1.35332 1.01334 1.83818 0.8125 2.34375 0.8125ZM28.9512 6.45119C29.5574 5.84119 30.2398 5.37225 30.9375 5.06344V23.6875H27.125V10.3438C27.125 9.05894 27.7884 7.61019 28.9512 6.45119ZM30.9375 27.5V52.2812C30.9375 52.7868 31.1383 53.2717 31.4958 53.6292C31.8533 53.9867 32.3382 54.1875 32.8438 54.1875C33.3493 54.1875 33.8342 53.9867 34.1917 53.6292C34.5492 53.2717 34.75 52.7868 34.75 52.2812V2.71875C34.75 2.21318 34.5492 1.72832 34.1917 1.37083C33.8342 1.01334 33.3493 0.8125 32.8438 0.8125C30.3161 0.8125 27.9523 2.05538 26.2519 3.75194C24.5554 5.45231 23.3125 7.81606 23.3125 10.3438V25.5938C23.3125 26.0993 23.5133 26.5842 23.8708 26.9417C24.2283 27.2992 24.7132 27.5 25.2188 27.5H30.9375Z" fill="white"/>
</svg>
