<svg width="20" height="21" viewBox="0 0 20 21" fill="none" xmlns="http://www.w3.org/2000/svg">
<path fill-rule="evenodd" clip-rule="evenodd" d="M2 10.5C2.00014 8.96045 2.44451 7.45364 3.27979 6.16038C4.11506 4.86712 5.30576 3.84234 6.70901 3.20901C8.11225 2.57568 9.66844 2.3607 11.1908 2.58987C12.7132 2.81904 14.1372 3.48262 15.2918 4.50099C16.4464 5.51936 17.2826 6.84926 17.7002 8.33111C18.1177 9.81296 18.0988 11.3838 17.6457 12.8552C17.1926 14.3265 16.3246 15.6359 15.1458 16.6262C13.967 17.6165 12.5275 18.2456 11 18.438V12.5H13C13.2652 12.5 13.5196 12.3946 13.7071 12.2071C13.8946 12.0196 14 11.7652 14 11.5C14 11.2348 13.8946 10.9804 13.7071 10.7929C13.5196 10.6054 13.2652 10.5 13 10.5H11V8.5C11 8.23478 11.1054 7.98043 11.2929 7.79289C11.4804 7.60536 11.7348 7.5 12 7.5H12.5C12.7652 7.5 13.0196 7.39464 13.2071 7.20711C13.3946 7.01957 13.5 6.76522 13.5 6.5C13.5 6.23478 13.3946 5.98043 13.2071 5.79289C13.0196 5.60536 12.7652 5.5 12.5 5.5H12C11.2044 5.5 10.4413 5.81607 9.87868 6.37868C9.31607 6.94129 9 7.70435 9 8.5V10.5H7C6.73478 10.5 6.48043 10.6054 6.29289 10.7929C6.10536 10.9804 6 11.2348 6 11.5C6 11.7652 6.10536 12.0196 6.29289 12.2071C6.48043 12.3946 6.73478 12.5 7 12.5H9V18.438C7.0667 18.1942 5.28882 17.2533 4 15.7917C2.71119 14.3302 2.00003 12.4486 2 10.5ZM10 20.5C15.523 20.5 20 16.023 20 10.5C20 4.977 15.523 0.5 10 0.5C4.477 0.5 0 4.977 0 10.5C0 16.023 4.477 20.5 10 20.5Z" fill="black"/>
</svg>
