<?xml version="1.0" encoding="UTF-8"?>
<svg id="Ebene_1" data-name="Ebene 1" xmlns="http://www.w3.org/2000/svg" viewBox="0 0 20 20">
  <defs>
    <style>
      .cls-1 {
        fill: #fff;
        fill-rule: evenodd;
        stroke-width: 0px;
      }
    </style>
  </defs>
  <path class="cls-1" d="M2,10c0-1.54.44-3.05,1.28-4.34.84-1.29,2.03-2.32,3.43-2.95,1.4-.63,2.96-.85,4.48-.62,1.52.23,2.95.89,4.1,1.91,1.15,1.02,1.99,2.35,2.41,3.83.42,1.48.4,3.05-.05,4.52-.45,1.47-1.32,2.78-2.5,3.77-1.18.99-2.62,1.62-4.15,1.81v-5.94h2c.27,0,.52-.11.71-.29s.29-.44.29-.71-.11-.52-.29-.71-.44-.29-.71-.29h-2v-2c0-.27.11-.52.29-.71.19-.19.44-.29.71-.29h.5c.27,0,.52-.11.71-.29.19-.19.29-.44.29-.71s-.11-.52-.29-.71c-.19-.19-.44-.29-.71-.29h-.5c-.8,0-1.56.32-2.12.88-.56.56-.88,1.33-.88,2.12v2h-2c-.27,0-.52.11-.71.29-.19.19-.29.44-.29.71s.11.52.29.71c.19.19.44.29.71.29h2v5.94c-1.93-.24-3.71-1.18-5-2.65-1.29-1.46-2-3.34-2-5.29ZM10,20c5.52,0,10-4.48,10-10S15.52,0,10,0,0,4.48,0,10s4.48,10,10,10Z"/>
</svg>