<svg width="35" height="61" viewBox="0 0 35 61" fill="none" xmlns="http://www.w3.org/2000/svg">
<path d="M21.8571 43.5713V54.4642C21.8571 55.6198 21.3981 56.728 20.581 57.5451C19.7638 58.3623 18.6556 58.8213 17.5 58.8213C16.3444 58.8213 15.2362 58.3623 14.419 57.5451C13.6019 56.728 13.1429 55.6198 13.1429 54.4642V43.5713M29.4821 13.0713C27.4599 13.0713 25.5204 12.268 24.0905 10.838C22.6605 9.40805 21.8571 7.4686 21.8571 5.44632C21.8675 4.6146 22.0148 3.79025 22.2929 3.00632C20.7475 2.4849 19.1307 2.20565 17.5 2.17847C13.4554 2.17847 9.57655 3.78516 6.71662 6.64509C3.85669 9.50502 2.25 13.3839 2.25 17.4285V39.2142C2.25 40.3698 2.70905 41.478 3.52618 42.2951C4.3433 43.1123 5.45156 43.5713 6.60714 43.5713H28.3929C29.5484 43.5713 30.6567 43.1123 31.4738 42.2951C32.2909 41.478 32.75 40.3698 32.75 39.2142V17.4285C32.7228 15.7977 32.4436 14.181 31.9221 12.6356C31.1382 12.9137 30.3139 13.0609 29.4821 13.0713Z" stroke="white" stroke-width="3" stroke-linecap="round" stroke-linejoin="round"/>
</svg>
