<?xml version="1.0" encoding="UTF-8"?>
<svg id="Layer_1" data-name="Layer 1" xmlns="http://www.w3.org/2000/svg" xmlns:xlink="http://www.w3.org/1999/xlink" viewBox="0 0 390.61 407.44">
  <defs>
    <style>
      .cls-1, .cls-2 {
        stroke-width: 0px;
      }

      .cls-3 {
        stroke: #231f20;
        stroke-miterlimit: 10;
      }

      .cls-2 {
        fill: none;
      }

      .cls-4 {
        clip-path: url(#clippath-1);
      }

      .cls-5 {
        clip-path: url(#clippath);
      }
    </style>
    <clipPath id="clippath">
      <rect class="cls-2" y="-43.23" width="195.3" height="597.45"/>
    </clipPath>
    <clipPath id="clippath-1">
      <rect class="cls-2" x="195.31" y="-43.23" width="195.3" height="597.45"/>
    </clipPath>
  </defs>
  <g>
    <g id="_Mirror_Repeat_" data-name=" Mirror Repeat ">
      <g class="cls-5">
        <g>
          <circle class="cls-1" cx="164.52" cy="99.51" r="3.83"/>
          <path class="cls-1" d="m195.31,0c-1.79,2.44-2.8,4.7-3.38,6.3-.88,2.41-1.57,4.39-.94,6.72.23.85.45,1.98,1.45,2.81,1.54,1.28,3.63.85,4,.77"/>
          <path class="cls-1" d="m195.31,22.81c-.4-1.1-2.01-5.3-5.17-6.98-.62-.33-1.9-1.03-3.23-.6-.31.1-1.15.37-1.45,1.11-.17.41-.2,1.03.6,2.38.92,1.56,1.94,2.08,2.64,3.06,1.62,2.3,2.4,4.37,2.72,5.36.76,2.29,1.25,5.19.77,5.36-.3.1-.75-.89-2.3-3.15-1.88-2.74-2.86-4.14-4.51-5.19-.47-.3-1.77-1.07-3.57-1.28-1.04-.12-2.5-.28-3.15.6-.51.69-.32,1.77.09,2.47.57.98,1.57,1.24,2.47,1.62,2.45,1.03,3.89,2.84,5.28,4.6,1.8,2.27,2.89,5.06,2.47,5.36-.39.28-1.75-1.83-4.85-4-1.29-.9-3.61-2.49-6.89-3.23-4.4-1-8.06.09-9.28.51-4.38,1.49-6.89,4.36-8.26,5.96-.74.86-4.12,4.96-5.45,10.3-.21.83-.76,3.28-1.11,3.23-.03,0-.14-.04-.26-.85-.22-1.55-.03-2.77,0-2.98.09-.52.3-1.64.85-3.06.61-1.56,1-1.87,1.11-2.98.07-.65.14-1.44-.34-2.04-.69-.86-2.07-.82-2.89-.6-1.21.34-1.86,1.27-2.21,1.79-.24.36-.87,1.37-1.11,4.17-.23,2.73.17,4.01-.26,4.17-.48.18-1.13-1.41-3.23-3.49-2.05-2.03-3.51-2.6-4.17-2.81-.94-.3-2.35-.76-3.23,0-.63.54-.8,1.53-.6,2.3.28,1.03,1.2,1.5,2.38,2.21,2.71,1.63,5.04,3.45,4.94,3.66-.09.18-1.85-.87-4.6-1.53-.71-.17-3-.68-5.96-.51-2.24.13-4.26.24-6.21,1.36-2.78,1.59-3.87,4.34-4.68,6.38-2.2,5.53-1.17,10.65-.68,12.94.83,3.88,2.45,6.92,3.23,8.26.47.8,1.39,2.18,3.23,4.94,2.89,4.33,2.7,3.87,2.98,4.43.54,1.07,2.86,5.61,3.23,8.77.03.29.13,1.3.77,1.62.48.24,1.06-.03,1.19-.09,2.47-1.04,32.79-4.2,53.11-4.51,1.33-.02,3.81-.05,6.98,0l-1.38-69.02v-.02h-.01Zm-39.64,59.49c-.4,1.46-1.17,4.27-3.74,5.79-2.52,1.48-5.27.85-6.72.51-3.81-.88-6.15-3.17-8.77-5.79-2.3-2.3-6.05-6.15-8.09-12.43-.76-2.35-1.79-5.67-.94-9.7.36-1.71.93-4.39,3.32-6.13,2.08-1.51,4.39-1.46,5.28-1.45,1.85.04,4.28.62,4.34,1.45.06.85-2.48.82-3.74,2.89-.93,1.52-.63,3.29-.34,5.02.21,1.24.54,3.23,2.13,4.94,1.13,1.22,2.41,1.77,3.23,2.13,2.06.89,2.49.35,4.09,1.19,1.35.71,2.28,1.74,3.32,2.89,1.27,1.41,1.64,2.24,2.72,2.47.2.04,1.24.26,1.96-.43.63-.61.54-1.58.51-1.96-.28-3.22-4.63-5.54-5.28-5.87-1.97-1.02-2.45-.7-5.45-2.21-2.31-1.17-2.98-1.84-3.23-2.72-.43-1.53.63-2.91.68-2.98,1.05-1.32,2.66-1.36,2.89-1.36.56,0,1.77.12,4.51,2.89,1.16,1.17,2.57,2.62,4,5.02.57.97,2.02,3.56,2.89,7.32.68,2.93,1.26,5.45.43,8.51h0Zm36.51-16.17c-.18.13-.54.03-1.36-.51-1.22-.8-2-1.58-2.21-1.79-1.13-1.07-2.65-1.11-5.28-1.19-1.72-.05-3.64-.11-5.87.85-1.02.44-3.27,1.44-4.77,3.91-.3.49-2.2,3.76-.94,7.49.95,2.78,3.09,4.18,4.26,4.94.93.6,2.47,1.58,4.68,1.7.34.02,2.45.11,4.6-1.11.89-.51,1.92-1.09,2.04-2.13.12-1.02-.7-1.81-.77-1.87-.79-.74-1.82-.66-2.21-.6-.84.13-.98.56-1.96,1.02-.27.13-1.5.7-2.81.51-1.44-.21-2.74-1.3-3.32-2.64-.91-2.09.22-4.09.6-4.77,1.16-2.06,3.1-2.83,3.83-3.06,2.42-.79,4.48.02,5.28.34.89.35,3.34,1.32,4.34,3.83.76,1.89.28,3.64,0,4.68-.17.63-.72,2.4-3.23,5.19s-4.49,4.99-7.83,5.79c-2.95.71-5.44-.05-6.64-.43-5.31-1.68-8.11-6.06-9.79-8.68-2.18-3.41-2.98-6.42-3.57-8.68-.29-1.11-1.11-4.43-.77-8.6.2-2.38.65-3.6,1.62-4.43.2-.17,1.46-1.21,3.15-.94,1.93.31,2.79,2.07,2.89,2.3.05.11.77,1.7.09,3.32-.32.76-.69.92-1.79,2.04-1.29,1.33-2.14,2.21-2.72,3.49-.57,1.26-.61,2.34-.68,4.09-.06,1.46.12,1.98.34,2.38.1.18.82,1.46,2.04,1.45.89,0,1.64-.7,1.96-1.36.41-.85,0-1.38.09-3.06,0,0,.05-.91.34-2.04.76-3.01,4.09-3.05,5.36-6.04,1.03-2.43-.03-5.06-.26-5.62-.13-.33-.66-1.58-1.87-2.81-.52-.52-2.7-2.74-5.53-2.64-1.89.07-2.94,1.12-3.49.6-.36-.35-.03-1.07.34-2.64.2-.84.77-2.82,2.98-5.7,2.16-2.81,3.41-4.43,5.87-5.53,3.58-1.6,6.94-.83,7.83-.6,2.28.6,3.66,1.71,5.87,3.49,1.15.93,4.45,3.59,3.91,4.68-.42.86-2.63-.41-5.19.77-2.74,1.25-3.65,4.25-3.74,4.6-.76,2.66.21,4.84.51,5.45,1.02,2.06,2.67,3.06,3.32,3.4.68.36,2.19,1.16,4.17.85,1.67-.26,2.74-1.17,3.15-1.53.6-.52,1.45-1.27,1.62-2.47.05-.33.17-1.25-.43-1.87-.62-.64-1.65-.61-2.3-.34-.5.21-.5.44-1.11.94-.45.36-1.65,1.33-2.89,1.02-.73-.18-1.35-.77-1.62-1.45-.43-1.07.12-2.08.43-2.64.22-.41.94-1.55,2.38-2.04,1.96-.67,3.65.43,4,.68,1.23.86,1.65,2.06,2.04,3.15.16.45.76,2.27.34,4.51-.19,1-.52,1.76-.76,2.3-.47,1.07-1.02,1.89-1.46,2.47.77.26,2.42.94,2.89,2.38.04.13.31.97,0,1.19h.01Z"/>
          <path class="cls-1" d="m141.03,38.64c-.39-2.79-.15-6.04,0-7.66l5.02,4.54c.9.81,1.54,1.89,1.69,3.09v.03c.09.7.28,2.35-.85,3.4-.96.89-2.23.78-2.38.77-1.73-.18-2.63-1.82-2.89-2.3-.43-.79-.54-1.51-.6-1.87h.01Z"/>
          <path class="cls-1" d="m190.43,103.77l-19.66.7c.35-.42.89-1.17,1.15-2.23.46-1.93-.32-3.56-.7-4.34-.5-1.03-1.13-1.77-1.6-2.23l-.89-1.15,21-.64c-.36.34-.89.94-1.28,1.81-.58,1.31-.5,2.49-.45,3.17.09,1.16.44,2.09.77,2.74l1.66,2.17h0Z"/>
          <path class="cls-1" d="m137.07,98.54l3.83,8.49c12.35-1.58,17.75-2.18,18.19-2.08.02,0,.15.04.19-.02.15-.17-.57-.91-1.09-1.66-.22-.33-.95-1.42-1.15-2.87-.09-.66-.27-1.99.45-3.13.47-.74,1.15-1.14,1.02-1.4-.09-.19-.53-.17-.89-.13l-20.55,2.81h0Z"/>
          <circle class="cls-1" cx="195.32" cy="98.18" r="3.83"/>
          <path class="cls-1" d="m196.82,106c-13.78.03-24.61.47-32.23.89-4.82.27-18.45,1.09-18.45,1.09-.3.07-.72.17-1.21.32-.51.16-1.37.44-2.36.96-1.14.59-1.28.87-1.34,1.02-.19.52.05,1.05.13,1.21.28.61.81.9,1.15,1.09.52.28,1.03.38,1.79.45,1.75.15,3.06-.06,3.06-.06,2.35-.34,3.53-.51,4.34-.7,2.87-.69,7.27-.83,12.32-.96,14.94-.37,32.68-.51,32.68-.51"/>
          <path class="cls-1" d="m160.82,392.22c3.52,1.06,6.43,1.54,8.43,1.79,2.38.29,3.44.24,7.66.77,2.11.26,4.25.57,6.77,1.66.09.04.86.63,2.04,1.02.85.28,1.68.55,2.17.13.53-.46.49-1.5.13-2.17-.34-.62-.94-.88-1.91-1.28-1.19-.49-2.16-.64-2.17-.64-2.05-.31-4.07-.77-6.13-1.02-2.43-.29-4.37-.52-6.77-.89-3.28-.51-4.67-.84-5.74-1.15-1.88-.53-3.37-.41-3.7-1.28-.19-.5.15-.83.38-1.91.2-.94.14-1.7,0-3.19-.02-.2-.28-2.91-.89-4.98-1.16-3.9-4.07-7.16-6.26-9.57-4.42-4.88-8.74-7.76-9.96-8.55-3.88-2.51-4.4-2.01-7.28-4.34-1.6-1.29-2.8-2.55-3.83-2.17-.77.28-1.14,1.38-1.4,3.45-.4,3.22-.75,5.99.38,9.7,1.5,4.9,4.53,7.92,7.28,10.6,5.2,5.07,10.24,7.23,9.96,7.79-.18.36-2.37-.47-6.38-1.79-7.09-2.33-6.65-1.81-9.57-2.94,0,0-1.53-.59-9.7-4.6.14-.5.32-1.2.51-2.04.04-.19.46-2.1.64-3.7.32-2.91-.07-5.66-.26-6.77-.8-4.64-2.91-8.05-4.85-11.11-2.73-4.31-5.52-7.14-8.3-9.96-2.95-2.99-4.6-6.21-6.26-5.74-.48.13-.79.55-1.38,1.38-1.46,2.04-1.99,4.03-2.2,4.88-.5,2.04-1.17,4.8-.77,8.3.57,4.93,2.95,8.33,5.49,11.87,3.69,5.14,7.23,7.75,6.89,8.17-.24.3-2.1-.98-7.28-4.09-6.2-3.72-6.63-3.74-9.06-5.49-3.98-2.85-6.42-5.36-6.75-5.6l-.02-.02c-.17-.22.66-1.14.89-1.4.53-.61.91-1.47,1.66-3.19,1.47-3.36,1.15-9.32,1.15-9.32-.33-6.14-2.02-10.73-2.94-13.15-.51-1.35-1.83-3.88-4.47-8.94-2.07-3.96-3.41-6.31-4.72-6.13-.32.05-.52.22-1.15.89-1.87,1.98-2.81,2.97-3.45,3.96-2.41,3.72-2.88,8.15-2.94,8.68-.45,4.52.77,7.88,2.3,12.13,2.16,5.99,5.19,9.2,4.72,9.57-.54.44-4.64-3.8-7.02-6.26-6.89-7.12-11.05-13.1-11.54-13.44,0,0-.06-.04-.07-.1-.07-.3,1.04-.76,1.53-1.02,1-.53,1.49-1.32,2.43-2.81,2.21-3.54,3.06-7.79,3.06-7.79.67-3.36.59-5.95.38-10.98-.21-5.32-.32-7.98-1.02-10.47-1.31-4.66-4.04-9.61-4.08-9.7h0c-.08-.13-1.58.65-2.04.89-2.86,1.48-5.11,4.21-5.11,4.21-2.31,2.81-3.12,5.63-3.57,7.28-.84,3.04-.8,5.43-.77,7.91.02,1.6.17,4.61,1.02,8.3.88,3.82,1.94,5.86,1.66,6-.45.22-3.4-4.82-5.36-8.17-.74-1.26-3.94-6.76-8.34-15.28,0-.02-.08-.08-.08-.16,0-.42,1.52-.78,1.91-.89,1.6-.44,2.75-1.75,4.47-3.7,3.61-4.1,5.62-9.96,5.62-9.96,1.82-5.32,1.96-9.72,2.04-13.66.13-5.96-.63-12.68-.64-12.77h0c-.02-.06-2.19.45-2.43.51-1.43.34-4.08,1.31-6.26,2.81-3.82,2.63-5.46,6.41-6.38,8.55-1.48,3.41-1.82,6.32-2.17,9.45-.65,5.87.03,9.48-.51,9.57-.24.04-.78-.61-2.94-8.3,0,0-2.01-7.17-4.34-17.23.31-.08.8-.22,1.4-.38,1.53-.42,4.26-1.22,4.47-1.28,4.04-1.21,8.81-8.81,8.81-8.81,4.01-8.02,6.66-14.42,7.28-17.23.88-4.05,1.03-8.59,1.15-9.02v-.05c-.07-.33-2-.18-2.68-.13-4.85.37-8.43,2.3-8.43,2.3-4.35,2.35-6.61,5.94-8.04,8.3-4.7,7.71-4.71,15.02-5.49,14.94-.46-.05-.49-2.6-.64-8.55-.22-8.91-.51-17.23-.51-17.23.34-.02.82-.06,1.4-.13.34-.04,7.18-.88,13.15-4.6,6.04-3.75,8.91-9.03,14.55-19.4,1.13-2.08,3.14-6.42,3.31-6.62v-.02c.03-.21-1.85-.54-2.42-.64-.25-.04-3.91-.68-6.77-.38-4.72.48-8.9,3.68-10.72,5.23-8.18,6.99-10.09,16.3-11.11,15.96-.87-.29.69-7.17,1.15-9.19,0,0,1.25-5.5,4.98-16.72.63.05,1.56.1,2.68.13,2.73.12,5.91-.19,6.51-.26,5.23-.59,11.78-5.25,12.64-5.87,9.89-7.13,16.47-16.98,16.47-16.98-.21-.26-.55-.63-1.02-1.02-1.69-1.38-3.72-1.73-6-1.79-3.58-.09-8.48-.21-14.04,2.68-4.08,2.12-6.67,4.91-7.66,6-3.09,3.39-4.68,6.76-5.23,6.51-.49-.22.35-3.03.51-3.57,3.27-10.8,11.08-19.83,11.23-20.04.64.33,1.55.76,2.68,1.15,1.57.67,5.39,1.5,10.6.89,2.62-.31,6.72-1.1,12.77-4.09,9.51-4.68,16.98-12.13,16.98-12.13-.71-.82-1.88-1.97-3.57-2.94-1.1-.63-2.78-1.39-5.62-1.79-7.2-1.01-13.4,1.4-13.4,1.4-3.12,1.21-6.03,3.06-10.85,6.13-2.56,1.63-3.59,2.41-3.83,2.17-.77-.8,8.99-10.49,10.6-13.02.09-.15.41-.66,1.02-1.02.89-.52,1.85-.4,2.04-.38,1.91.18,9.03-2.42,12.89-4.21,10.29-4.78,17.69-13.23,19.15-14.94,7.14-8.35,8.61-14.73,10.07-16.38.04-.05.19-.21.14-.34-.24-.72-5.47.43-7.02.77-5.32,1.16-11.12,2.43-17.87,6.38-5.17,3.02-8.19,6.04-12.64,10.47-2.7,2.69-8.5,8.54-9.06,12.89-.05.39-.2,1.87-.89,3.7-.66,1.74-1.48,2.95-1.91,3.57-1.72,2.45-8.33,11.39-9.32,10.72-.43-.29.68-2.1,2.43-6.89.73-2.01,2.28-6.26,3.19-10.85.96-4.82,1.83-9.21.13-14.04-1.33-3.79-4.09-7.41-5.49-7.02-.33.09-.4.35-1.28,1.53-1.1,1.49-1.72,2.1-2.3,2.81-.58.72-3.89,5-6.51,10.47-2.4,5-5.52,11.5-4.72,19.66.3,3.03.66,6.75,3.32,9.7,1.61,1.79,5.15,4.5,5.11,4.47-.2.35-.52.88-.89,1.53,0,0-2.73,4.7-4.85,8.55-4.2,7.63-6.05,13.99-6.77,13.79-.5-.14.23-3.2.89-9.32,1.3-12.01.18-15.87-.26-17.23-.65-2-1.5-4.65-3.83-7.02-2.06-2.1-5.62-4.34-5.62-4.34-.25.29-.61.73-1.02,1.28-1.14,1.52-3.03,4.39-4.6,9.57-1.19,3.94-2.89,9.6-2.3,17.23.48,6.16.92,11.75,4.98,15.57,2.43,2.28,7.53,5.23,7.53,5.23,0,.29-.04.79-.13,1.4-.17,1.19-.44,2.06-.51,2.3-.73,2.38-1.1,4.85-1.66,7.28-1.79,7.75-2.2,15.33-3.06,15.32-.45,0-.59-2.06-1.4-6.89-1.01-6.04-1.77-10.41-3.57-15.19-1.61-4.28-2.42-6.41-4.6-8.43-3.34-3.09-8.82-4.98-9.06-5.11-.13.41-.31,1.03-.51,1.79-.51,1.93-1.84,7.42-1.66,15.45.07,3.23.13,5.55.77,8.68.84,4.12,2.08,10.17,6.64,14.55,4.57,4.39,11.87,6.51,11.87,6.51,1.66,21.29,1.43,26.47.77,26.55-.41.05-.78-1.87-2.3-5.87-1.68-4.42-3.7-9.77-7.66-14.81-3.63-4.62-7.44-7.16-9.57-8.04-2.11-.87-4.78-1.02-6.14-1.52,0,0-.06-.02-.11,0-.82.19,0,6.82.64,10.6.79,4.59,1.65,9.55,4.6,15.32,2.48,4.85,4.34,8.49,8.43,11.11,5.93,3.79,14.68,4.21,14.68,4.21.06.43.14,1.05.26,1.79,2.2,14.36,7.34,23.78,6.64,24.13-.34.17-1.55-2.06-3.96-5.49-3.27-4.65-6.71-9.46-12.13-13.4-2.99-2.18-5.72-4.16-9.7-4.72-2.54-.36-7.28-.38-7.28-.38.1.67.26,1.64.51,2.81,1.76,8.28,5.25,14.05,6.38,15.83,1.63,2.56,4.03,6.27,8.43,9.83,2.19,1.77,5.11,4.14,9.7,5.49,0,0,6.2,1.83,12.47.47l.42-.09c.22.56.57,1.41,1.02,2.43,1.42,3.23,3.33,6.94,8.43,15.06,2.68,4.27,4.08,6.32,3.83,6.51s-1.81-1.66-4.6-4.21c-.55-.51-3.57-3.26-7.15-5.74-2.13-1.48-5.8-3.99-11.11-5.87-3.2-1.13-5.83-2.03-9.32-1.66,0,0-.5.1-5.62,1.66.26.76.68,1.88,1.28,3.19,2.94,6.39,7.14,10.27,10.47,13.28,3.93,3.55,6.64,6,11.23,7.91,2.4,1,6.2,2.58,11.11,2.3,4.81-.28,10.62-2.34,10.47-2.3.54.53,1.34,1.32,2.3,2.3,3.82,3.9,5.52,6.07,7.66,8.43,5.42,5.97,9.4,8.46,9.06,8.94-.28.4-2.97-1.37-8.81-4.09-4.19-1.95-7.27-3.36-11.36-4.47-3.08-.83-6.52-1.73-10.98-1.4-4.39.32-9.42,1.81-9.45,3.32,0,.13.03.31,1.02,1.4,1.65,1.83,2.68,2.68,2.68,2.68,6.12,5.04,6.52,6.01,10.21,8.3,4.21,2.62,7.91,3.99,9.7,4.6,3.95,1.33,7.06,1.78,8.04,1.91,2.62.35,4.96.66,7.66.26,5.64-.85,10.34-5.23,10.34-5.23.39.23.96.59,1.66,1.02,4.88,3.05,7.83,5.33,9.83,6.77,7.14,5.11,12.5,6.78,12.26,7.4-.18.46-3.06-.54-9.06-1.79-4.5-.94-9.2-1.89-14.94-2.04-4.63-.12-7.77-.17-11.36,1.53-2.68,1.27-5.16,3.99-5.8,4.38,0,0-.06.04-.08.09-.12.32.96,1,1.4,1.28,6.94,4.31,8.81,5.11,8.81,5.11,6.08,2.58,9.12,3.87,10.34,4.21,3.5.97,8.7,2.42,15.32,1.4,3.27-.5,7.52-1.15,11.23-4.21,1.55-1.28,4.98-4.6,4.98-4.6.3.09.74.22,1.28.38,3.19,1,5.37,2.04,6.51,2.55,1.68.75,3.59,1.35,7.4,2.55,7.3,2.3,11.29,2.82,11.23,3.32-.04.35-1.98.3-6.51.38-6.45.12-10.25.2-14.55.77-3.6.48-5.89.8-8.81,2.04-3.26,1.39-4.9,2.92-7.53,5.36-1.2,1.12-2.38,2.38-2.04,3.19.15.35.53.49,1.28.77,2.27.83,3.41,1.24,3.57,1.28,3.58.78,6.23,2.02,10.72,2.81,1.52.27,9.59,1.59,19.66-.77,5.04-1.18,9.33-2.24,12.26-6.13,1.35-1.79,1.98-3.6,2.3-4.85l.89-1.4v-.02h0Z"/>
        </g>
      </g>
    </g>
    <g id="_Mirror_Repeat_-2" data-name=" Mirror Repeat -2">
      <g class="cls-4">
        <g>
          <circle class="cls-1" cx="226.09" cy="99.51" r="3.83"/>
          <path class="cls-1" d="m195.31,0c1.79,2.44,2.8,4.7,3.38,6.3.88,2.41,1.57,4.39.94,6.72-.23.85-.45,1.98-1.45,2.81-1.54,1.28-3.63.85-4,.77"/>
          <path class="cls-1" d="m195.31,22.81c.4-1.1,2.01-5.3,5.17-6.98.62-.33,1.9-1.03,3.23-.6.31.1,1.15.37,1.45,1.11.17.41.2,1.03-.6,2.38-.92,1.56-1.94,2.08-2.64,3.06-1.62,2.3-2.4,4.37-2.72,5.36-.76,2.29-1.25,5.19-.77,5.36.3.1.75-.89,2.3-3.15,1.88-2.74,2.86-4.14,4.51-5.19.47-.3,1.77-1.07,3.57-1.28,1.04-.12,2.5-.28,3.15.6.51.69.32,1.77-.09,2.47-.57.98-1.57,1.24-2.47,1.62-2.45,1.03-3.89,2.84-5.28,4.6-1.8,2.27-2.89,5.06-2.47,5.36.39.28,1.75-1.83,4.85-4,1.29-.9,3.61-2.49,6.89-3.23,4.4-1,8.06.09,9.28.51,4.38,1.49,6.89,4.36,8.26,5.96.74.86,4.12,4.96,5.45,10.3.21.83.76,3.28,1.11,3.23.03,0,.14-.04.26-.85.22-1.55.03-2.77,0-2.98-.09-.52-.3-1.64-.85-3.06-.61-1.56-1-1.87-1.11-2.98-.07-.65-.14-1.44.34-2.04.69-.86,2.07-.82,2.89-.6,1.21.34,1.86,1.27,2.21,1.79.24.36.87,1.37,1.11,4.17.23,2.73-.17,4.01.26,4.17.48.18,1.13-1.41,3.23-3.49,2.05-2.03,3.51-2.6,4.17-2.81.94-.3,2.35-.76,3.23,0,.63.54.8,1.53.6,2.3-.28,1.03-1.2,1.5-2.38,2.21-2.71,1.63-5.04,3.45-4.94,3.66.09.18,1.85-.87,4.6-1.53.71-.17,3-.68,5.96-.51,2.24.13,4.26.24,6.21,1.36,2.78,1.59,3.87,4.34,4.68,6.38,2.2,5.53,1.17,10.65.68,12.94-.83,3.88-2.45,6.92-3.23,8.26-.47.8-1.39,2.18-3.23,4.94-2.89,4.33-2.7,3.87-2.98,4.43-.54,1.07-2.86,5.61-3.23,8.77-.03.29-.13,1.3-.77,1.62-.48.24-1.06-.03-1.19-.09-2.47-1.04-32.79-4.2-53.11-4.51-1.33-.02-3.81-.05-6.98,0l1.38-69.02v-.02h.01Zm39.64,59.49c.4,1.46,1.17,4.27,3.74,5.79,2.52,1.48,5.27.85,6.72.51,3.81-.88,6.15-3.17,8.77-5.79,2.3-2.3,6.05-6.15,8.09-12.43.76-2.35,1.79-5.67.94-9.7-.36-1.71-.93-4.39-3.32-6.13-2.08-1.51-4.39-1.46-5.28-1.45-1.85.04-4.28.62-4.34,1.45-.06.85,2.48.82,3.74,2.89.93,1.52.63,3.29.34,5.02-.21,1.24-.54,3.23-2.13,4.94-1.13,1.22-2.41,1.77-3.23,2.13-2.06.89-2.49.35-4.09,1.19-1.35.71-2.28,1.74-3.32,2.89-1.27,1.41-1.64,2.24-2.72,2.47-.2.04-1.24.26-1.96-.43-.63-.61-.54-1.58-.51-1.96.28-3.22,4.63-5.54,5.28-5.87,1.97-1.02,2.45-.7,5.45-2.21,2.31-1.17,2.98-1.84,3.23-2.72.43-1.53-.63-2.91-.68-2.98-1.05-1.32-2.66-1.36-2.89-1.36-.56,0-1.77.12-4.51,2.89-1.16,1.17-2.57,2.62-4,5.02-.57.97-2.02,3.56-2.89,7.32-.68,2.93-1.26,5.45-.43,8.51h0Zm-36.51-16.17c.18.13.54.03,1.36-.51,1.22-.8,2-1.58,2.21-1.79,1.13-1.07,2.65-1.11,5.28-1.19,1.72-.05,3.64-.11,5.87.85,1.02.44,3.27,1.44,4.77,3.91.3.49,2.2,3.76.94,7.49-.95,2.78-3.09,4.18-4.26,4.94-.93.6-2.47,1.58-4.68,1.7-.34.02-2.45.11-4.6-1.11-.89-.51-1.92-1.09-2.04-2.13-.12-1.02.7-1.81.77-1.87.79-.74,1.82-.66,2.21-.6.84.13.98.56,1.96,1.02.27.13,1.5.7,2.81.51,1.44-.21,2.74-1.3,3.32-2.64.91-2.09-.22-4.09-.6-4.77-1.16-2.06-3.1-2.83-3.83-3.06-2.42-.79-4.48.02-5.28.34-.89.35-3.34,1.32-4.34,3.83-.76,1.89-.28,3.64,0,4.68.17.63.72,2.4,3.23,5.19s4.49,4.99,7.83,5.79c2.95.71,5.44-.05,6.64-.43,5.31-1.68,8.11-6.06,9.79-8.68,2.18-3.41,2.98-6.42,3.57-8.68.29-1.11,1.11-4.43.77-8.6-.2-2.38-.65-3.6-1.62-4.43-.2-.17-1.46-1.21-3.15-.94-1.93.31-2.79,2.07-2.89,2.3-.05.11-.77,1.7-.09,3.32.32.76.69.92,1.79,2.04,1.29,1.33,2.14,2.21,2.72,3.49.57,1.26.61,2.34.68,4.09.06,1.46-.12,1.98-.34,2.38-.1.18-.82,1.46-2.04,1.45-.89,0-1.64-.7-1.96-1.36-.41-.85,0-1.38-.09-3.06,0,0-.05-.91-.34-2.04-.76-3.01-4.09-3.05-5.36-6.04-1.03-2.43.03-5.06.26-5.62.13-.33.66-1.58,1.87-2.81.52-.52,2.7-2.74,5.53-2.64,1.89.07,2.94,1.12,3.49.6.36-.35.03-1.07-.34-2.64-.2-.84-.77-2.82-2.98-5.7-2.16-2.81-3.41-4.43-5.87-5.53-3.58-1.6-6.94-.83-7.83-.6-2.28.6-3.66,1.71-5.87,3.49-1.15.93-4.45,3.59-3.91,4.68.42.86,2.63-.41,5.19.77,2.74,1.25,3.65,4.25,3.74,4.6.76,2.66-.21,4.84-.51,5.45-1.02,2.06-2.67,3.06-3.32,3.4-.68.36-2.19,1.16-4.17.85-1.67-.26-2.74-1.17-3.15-1.53-.6-.52-1.45-1.27-1.62-2.47-.05-.33-.17-1.25.43-1.87.62-.64,1.65-.61,2.3-.34.5.21.5.44,1.11.94.45.36,1.65,1.33,2.89,1.02.73-.18,1.35-.77,1.62-1.45.43-1.07-.12-2.08-.43-2.64-.22-.41-.94-1.55-2.38-2.04-1.96-.67-3.65.43-4,.68-1.23.86-1.65,2.06-2.04,3.15-.16.45-.76,2.27-.34,4.51.19,1,.52,1.76.76,2.3.47,1.07,1.02,1.89,1.46,2.47-.77.26-2.42.94-2.89,2.38-.04.13-.31.97,0,1.19h-.01Z"/>
          <path class="cls-1" d="m249.58,38.64c.39-2.79.15-6.04,0-7.66l-5.02,4.54c-.9.81-1.54,1.89-1.69,3.09v.03c-.09.7-.28,2.35.85,3.4.96.89,2.23.78,2.38.77,1.73-.18,2.63-1.82,2.89-2.3.43-.79.54-1.51.6-1.87h-.01Z"/>
          <path class="cls-1" d="m200.18,103.77l19.66.7c-.35-.42-.89-1.17-1.15-2.23-.46-1.93.32-3.56.7-4.34.5-1.03,1.13-1.77,1.6-2.23l.89-1.15-21-.64c.36.34.89.94,1.28,1.81.58,1.31.5,2.49.45,3.17-.09,1.16-.44,2.09-.77,2.74l-1.66,2.17h0Z"/>
          <path class="cls-1" d="m253.54,98.54l-3.83,8.49c-12.35-1.58-17.75-2.18-18.19-2.08-.02,0-.15.04-.19-.02-.15-.17.57-.91,1.09-1.66.22-.33.95-1.42,1.15-2.87.09-.66.27-1.99-.45-3.13-.47-.74-1.15-1.14-1.02-1.4.09-.19.53-.17.89-.13l20.55,2.81h0Z"/>
          <circle class="cls-1" cx="195.32" cy="98.18" r="3.83"/>
          <path class="cls-1" d="m193.8,106c13.78.03,24.61.47,32.23.89,4.82.27,18.45,1.09,18.45,1.09.3.07.72.17,1.21.32.51.16,1.37.44,2.36.96,1.14.59,1.28.87,1.34,1.02.19.52-.05,1.05-.13,1.21-.28.61-.81.9-1.15,1.09-.52.28-1.03.38-1.79.45-1.75.15-3.06-.06-3.06-.06-2.35-.34-3.53-.51-4.34-.7-2.87-.69-7.27-.83-12.32-.96-14.94-.37-32.68-.51-32.68-.51"/>
          <path class="cls-1" d="m229.8,392.22c-3.52,1.06-6.43,1.54-8.43,1.79-2.38.29-3.44.24-7.66.77-2.11.26-4.25.57-6.77,1.66-.09.04-.86.63-2.04,1.02-.85.28-1.68.55-2.17.13-.53-.46-.49-1.5-.13-2.17.34-.62.94-.88,1.91-1.28,1.19-.49,2.16-.64,2.17-.64,2.05-.31,4.07-.77,6.13-1.02,2.43-.29,4.37-.52,6.77-.89,3.28-.51,4.67-.84,5.74-1.15,1.88-.53,3.37-.41,3.7-1.28.19-.5-.15-.83-.38-1.91-.2-.94-.14-1.7,0-3.19.02-.2.28-2.91.89-4.98,1.16-3.9,4.07-7.16,6.26-9.57,4.42-4.88,8.74-7.76,9.96-8.55,3.88-2.51,4.4-2.01,7.28-4.34,1.6-1.29,2.8-2.55,3.83-2.17.77.28,1.14,1.38,1.4,3.45.4,3.22.75,5.99-.38,9.7-1.5,4.9-4.53,7.92-7.28,10.6-5.2,5.07-10.24,7.23-9.96,7.79.18.36,2.37-.47,6.38-1.79,7.09-2.33,6.65-1.81,9.57-2.94,0,0,1.53-.59,9.7-4.6-.14-.5-.32-1.2-.51-2.04-.04-.19-.46-2.1-.64-3.7-.32-2.91.07-5.66.26-6.77.8-4.64,2.91-8.05,4.85-11.11,2.73-4.31,5.52-7.14,8.3-9.96,2.95-2.99,4.6-6.21,6.26-5.74.48.13.79.55,1.38,1.38,1.46,2.04,1.99,4.03,2.2,4.88.5,2.04,1.17,4.8.77,8.3-.57,4.93-2.95,8.33-5.49,11.87-3.69,5.14-7.23,7.75-6.89,8.17.24.3,2.1-.98,7.28-4.09,6.2-3.72,6.63-3.74,9.06-5.49,3.98-2.85,6.42-5.36,6.75-5.6,0,0,.01,0,.02-.02.17-.22-.66-1.14-.89-1.4-.53-.61-.91-1.47-1.66-3.19-1.47-3.36-1.15-9.32-1.15-9.32.33-6.14,2.02-10.73,2.94-13.15.51-1.35,1.83-3.88,4.47-8.94,2.07-3.96,3.41-6.31,4.72-6.13.32.05.52.22,1.15.89,1.87,1.98,2.81,2.97,3.45,3.96,2.41,3.72,2.88,8.15,2.94,8.68.45,4.52-.77,7.88-2.3,12.13-2.16,5.99-5.19,9.2-4.72,9.57.54.44,4.64-3.8,7.02-6.26,6.89-7.12,11.05-13.1,11.54-13.44.01,0,.06-.04.07-.1.07-.3-1.04-.76-1.53-1.02-1-.53-1.49-1.32-2.43-2.81-2.21-3.54-3.06-7.79-3.06-7.79-.67-3.36-.59-5.95-.38-10.98.21-5.32.32-7.98,1.02-10.47,1.31-4.66,4.04-9.61,4.08-9.7h0c.08-.13,1.58.65,2.04.89,2.86,1.48,5.11,4.21,5.11,4.21,2.31,2.81,3.12,5.63,3.57,7.28.84,3.04.8,5.43.77,7.91-.02,1.6-.17,4.61-1.02,8.3-.88,3.82-1.94,5.86-1.66,6,.45.22,3.4-4.82,5.36-8.17.74-1.26,3.94-6.76,8.34-15.28.01-.02.08-.08.08-.16.01-.42-1.52-.78-1.91-.89-1.6-.44-2.75-1.75-4.47-3.7-3.61-4.1-5.62-9.96-5.62-9.96-1.82-5.32-1.96-9.72-2.04-13.66-.13-5.96.63-12.68.64-12.77h0c.02-.06,2.19.45,2.43.51,1.43.34,4.08,1.31,6.26,2.81,3.82,2.63,5.46,6.41,6.38,8.55,1.48,3.41,1.82,6.32,2.17,9.45.65,5.87-.03,9.48.51,9.57.24.04.78-.61,2.94-8.3,0,0,2.01-7.17,4.34-17.23-.31-.08-.8-.22-1.4-.38-1.53-.42-4.26-1.22-4.47-1.28-4.04-1.21-8.81-8.81-8.81-8.81-4.01-8.02-6.66-14.42-7.28-17.23-.88-4.05-1.03-8.59-1.15-9.02v-.05c.07-.33,2-.18,2.68-.13,4.85.37,8.43,2.3,8.43,2.3,4.35,2.35,6.61,5.94,8.04,8.3,4.7,7.71,4.71,15.02,5.49,14.94.46-.05.49-2.6.64-8.55.22-8.91.51-17.23.51-17.23-.34-.02-.82-.06-1.4-.13-.34-.04-7.18-.88-13.15-4.6-6.04-3.75-8.91-9.03-14.55-19.4-1.13-2.08-3.14-6.42-3.31-6.62v-.02c-.03-.21,1.85-.54,2.42-.64.25-.04,3.91-.68,6.77-.38,4.72.48,8.9,3.68,10.72,5.23,8.18,6.99,10.09,16.3,11.11,15.96.87-.29-.69-7.17-1.15-9.19,0,0-1.25-5.5-4.98-16.72-.63.05-1.56.1-2.68.13-2.73.12-5.91-.19-6.51-.26-5.23-.59-11.78-5.25-12.64-5.87-9.89-7.13-16.47-16.98-16.47-16.98.21-.26.55-.63,1.02-1.02,1.69-1.38,3.72-1.73,6-1.79,3.58-.09,8.48-.21,14.04,2.68,4.08,2.12,6.67,4.91,7.66,6,3.09,3.39,4.68,6.76,5.23,6.51.49-.22-.35-3.03-.51-3.57-3.27-10.8-11.08-19.83-11.23-20.04-.64.33-1.55.76-2.68,1.15-1.57.67-5.39,1.5-10.6.89-2.62-.31-6.72-1.1-12.77-4.09-9.51-4.68-16.98-12.13-16.98-12.13.71-.82,1.88-1.97,3.57-2.94,1.1-.63,2.78-1.39,5.62-1.79,7.2-1.01,13.4,1.4,13.4,1.4,3.12,1.21,6.03,3.06,10.85,6.13,2.56,1.63,3.59,2.41,3.83,2.17.77-.8-8.99-10.49-10.6-13.02-.09-.15-.41-.66-1.02-1.02-.89-.52-1.85-.4-2.04-.38-1.91.18-9.03-2.42-12.89-4.21-10.29-4.78-17.69-13.23-19.15-14.94-7.14-8.35-8.61-14.73-10.07-16.38-.04-.05-.19-.21-.14-.34.24-.72,5.47.43,7.02.77,5.32,1.16,11.12,2.43,17.87,6.38,5.17,3.02,8.19,6.04,12.64,10.47,2.7,2.69,8.5,8.54,9.06,12.89.05.39.2,1.87.89,3.7.66,1.74,1.48,2.95,1.91,3.57,1.72,2.45,8.33,11.39,9.32,10.72.43-.29-.68-2.1-2.43-6.89-.73-2.01-2.28-6.26-3.19-10.85-.96-4.82-1.83-9.21-.13-14.04,1.33-3.79,4.09-7.41,5.49-7.02.33.09.4.35,1.28,1.53,1.1,1.49,1.72,2.1,2.3,2.81.58.72,3.89,5,6.51,10.47,2.4,5,5.52,11.5,4.72,19.66-.3,3.03-.66,6.75-3.32,9.7-1.61,1.79-5.15,4.5-5.11,4.47.2.35.52.88.89,1.53,0,0,2.73,4.7,4.85,8.55,4.2,7.63,6.05,13.99,6.77,13.79.5-.14-.23-3.2-.89-9.32-1.3-12.01-.18-15.87.26-17.23.65-2,1.5-4.65,3.83-7.02,2.06-2.1,5.62-4.34,5.62-4.34.25.29.61.73,1.02,1.28,1.14,1.52,3.03,4.39,4.6,9.57,1.19,3.94,2.89,9.6,2.3,17.23-.48,6.16-.92,11.75-4.98,15.57-2.43,2.28-7.53,5.23-7.53,5.23.01.29.04.79.13,1.4.17,1.19.44,2.06.51,2.3.73,2.38,1.1,4.85,1.66,7.28,1.79,7.75,2.2,15.33,3.06,15.32.45,0,.59-2.06,1.4-6.89,1.01-6.04,1.77-10.41,3.57-15.19,1.61-4.28,2.42-6.41,4.6-8.43,3.34-3.09,8.82-4.98,9.06-5.11.13.41.31,1.03.51,1.79.51,1.93,1.84,7.42,1.66,15.45-.07,3.23-.13,5.55-.77,8.68-.84,4.12-2.08,10.17-6.64,14.55-4.57,4.39-11.87,6.51-11.87,6.51-1.66,21.29-1.43,26.47-.77,26.55.41.05.78-1.87,2.3-5.87,1.68-4.42,3.7-9.77,7.66-14.81,3.63-4.62,7.44-7.16,9.57-8.04,2.11-.87,4.78-1.02,6.14-1.52.01,0,.06-.02.11,0,.82.19.01,6.82-.64,10.6-.79,4.59-1.65,9.55-4.6,15.32-2.48,4.85-4.34,8.49-8.43,11.11-5.93,3.79-14.68,4.21-14.68,4.21-.06.43-.14,1.05-.26,1.79-2.2,14.36-7.34,23.78-6.64,24.13.34.17,1.55-2.06,3.96-5.49,3.27-4.65,6.71-9.46,12.13-13.4,2.99-2.18,5.72-4.16,9.7-4.72,2.54-.36,7.28-.38,7.28-.38-.1.67-.26,1.64-.51,2.81-1.76,8.28-5.25,14.05-6.38,15.83-1.63,2.56-4.03,6.27-8.43,9.83-2.19,1.77-5.11,4.14-9.7,5.49,0,0-6.2,1.83-12.47.47l-.42-.09c-.22.56-.57,1.41-1.02,2.43-1.42,3.23-3.33,6.94-8.43,15.06-2.68,4.27-4.08,6.32-3.83,6.51s1.81-1.66,4.6-4.21c.55-.51,3.57-3.26,7.15-5.74,2.13-1.48,5.8-3.99,11.11-5.87,3.2-1.13,5.83-2.03,9.32-1.66,0,0,.5.1,5.62,1.66-.26.76-.68,1.88-1.28,3.19-2.94,6.39-7.14,10.27-10.47,13.28-3.93,3.55-6.64,6-11.23,7.91-2.4,1-6.2,2.58-11.11,2.3-4.81-.28-10.62-2.34-10.47-2.3-.54.53-1.34,1.32-2.3,2.3-3.82,3.9-5.52,6.07-7.66,8.43-5.42,5.97-9.4,8.46-9.06,8.94.28.4,2.97-1.37,8.81-4.09,4.19-1.95,7.27-3.36,11.36-4.47,3.08-.83,6.52-1.73,10.98-1.4,4.39.32,9.42,1.81,9.45,3.32,0,.13-.03.31-1.02,1.4-1.65,1.83-2.68,2.68-2.68,2.68-6.12,5.04-6.52,6.01-10.21,8.3-4.21,2.62-7.91,3.99-9.7,4.6-3.95,1.33-7.06,1.78-8.04,1.91-2.62.35-4.96.66-7.66.26-5.64-.85-10.34-5.23-10.34-5.23-.39.23-.96.59-1.66,1.02-4.88,3.05-7.83,5.33-9.83,6.77-7.14,5.11-12.5,6.78-12.26,7.4.18.46,3.06-.54,9.06-1.79,4.5-.94,9.2-1.89,14.94-2.04,4.63-.12,7.77-.17,11.36,1.53,2.68,1.27,5.16,3.99,5.8,4.38.01,0,.06.04.08.09.12.32-.96,1-1.4,1.28-6.94,4.31-8.81,5.11-8.81,5.11-6.08,2.58-9.12,3.87-10.34,4.21-3.5.97-8.7,2.42-15.32,1.4-3.27-.5-7.52-1.15-11.23-4.21-1.55-1.28-4.98-4.6-4.98-4.6-.3.09-.74.22-1.28.38-3.19,1-5.37,2.04-6.51,2.55-1.68.75-3.59,1.35-7.4,2.55-7.3,2.3-11.29,2.82-11.23,3.32.04.35,1.98.3,6.51.38,6.45.12,10.25.2,14.55.77,3.6.48,5.89.8,8.81,2.04,3.26,1.39,4.9,2.92,7.53,5.36,1.2,1.12,2.38,2.38,2.04,3.19-.15.35-.53.49-1.28.77-2.27.83-3.41,1.24-3.57,1.28-3.58.78-6.23,2.02-10.72,2.81-1.52.27-9.59,1.59-19.66-.77-5.04-1.18-9.33-2.24-12.26-6.13-1.35-1.79-1.98-3.6-2.3-4.85l-.89-1.4v-.02h0Z"/>
        </g>
      </g>
    </g>
  </g>
  <path class="cls-3" d="m105.94,172.38c0-.21.17-.39.38-.38,4.72.02,51.52.23,70.25-.55.04,0,.07.03.07.06h0c.2,1.37.05,2.76-.43,4.06h0s-20.79,1.14-22.94,5.58c0,0-.76,1.73,2.15,5.48l46.08,66.4s.08.04.1,0l45.5-61.64c1.1-1.49,2.04-3.08,2.82-4.75h0c.6-1.29.87-2.74.66-4.15-.14-.97-.5-1.95-1.31-2.53,0,0-2.39-2.2-9.82-2.99-.47-.05-.93-.08-1.4-.09-2.44-.08-10.74-.46-10.69-1.82l-.06-2.99c0-.33.27-.6.6-.58,4.75.26,36.27,1.89,54.61-.31.4-.05.77.17.94.53.5,1.06.87,3.24-3.63,4.37-.56.14-1.13.23-1.7.3-1.82.22-6.85.95-8.48,2.42,0,0-8.46,5.96-12.82,11.99l-47.06,62.27s-2.91,3.51-3.6,8.36l-.35,51.78s-.21,5.54,8.25,7.42c-.12.48,15.68,2.08,20.49,2.62.54.06,1,.56,1.03,1.1l.12,2.7c.02.54-.41.99-.95.98-8.59-.14-70.3-1.09-78.47.3-.17.03-.32-.1-.32-.27l-.05-3.18c0-.53.38-.97.9-1.04l8.58-1.13,13.24-2.36s7.07-1.52,7.69-7.83l-.38-41.1s-.62-7.38-3.74-11.02l-50.94-72.26s-8.14-12.32-15.62-11.49c0,0-6.79,0-9.05-1.56-.42-.29-.66-.77-.66-1.27v-1.43h.01Z"/>
</svg>