<?xml version="1.0" encoding="UTF-8"?>
<svg id="Ebene_1" data-name="Ebene 1" xmlns="http://www.w3.org/2000/svg" viewBox="0 0 19 19">
  <defs>
    <style>
      .cls-1 {
        fill: #fff;
        stroke-width: 0px;
      }
    </style>
  </defs>
  <path class="cls-1" d="M3.74,2.11c.06.94.22,1.86.47,2.73l-1.27,1.27c-.43-1.27-.71-2.61-.8-4h1.59ZM14.14,14.8c.9.25,1.82.41,2.74.48v1.57c-1.39-.1-2.73-.37-4.01-.79l1.27-1.26ZM4.75,0H1.06C.47,0,0,.47,0,1.06c0,9.91,8.03,17.94,17.94,17.94.58,0,1.06-.48,1.06-1.06v-3.68c0-.58-.48-1.06-1.06-1.06-1.31,0-2.59-.21-3.77-.6-.1-.04-.22-.06-.33-.05-.27,0-.54.11-.75.31l-2.32,2.32c-2.99-1.53-5.43-3.96-6.96-6.96l2.32-2.32c.3-.3.38-.71.26-1.08-.4-1.22-.6-2.49-.6-3.77,0-.58-.47-1.06-1.06-1.06Z"/>
</svg>