<svg width="89" height="23" viewBox="0 0 89 23" fill="none" xmlns="http://www.w3.org/2000/svg">
<path d="M11.3594 0.03125C12.8101 0.03125 14.2466 0.316985 15.5868 0.872142C16.9271 1.4273 18.1449 2.24101 19.1707 3.26681C20.1965 4.2926 21.0102 5.5104 21.5654 6.85067C22.1205 8.19094 22.4062 9.62743 22.4062 11.0781C22.4062 12.5288 22.1205 13.9653 21.5654 15.3056C21.0102 16.6458 20.1965 17.8637 19.1707 18.8894C18.1449 19.9152 16.9271 20.7289 15.5868 21.2841C14.2466 21.8393 12.8101 22.125 11.3594 22.125C8.42956 22.125 5.61975 20.9611 3.54805 18.8894C1.47636 16.8178 0.3125 14.0079 0.3125 11.0781C0.3125 8.14831 1.47636 5.3385 3.54805 3.26681C5.61975 1.19511 8.42956 0.0312501 11.3594 0.03125ZM44.5 0.03125C45.9507 0.03125 47.3872 0.316985 48.7275 0.872142C50.0677 1.4273 51.2855 2.24101 52.3113 3.26681C53.3371 4.2926 54.1508 5.5104 54.706 6.85067C55.2611 8.19094 55.5469 9.62743 55.5469 11.0781C55.5469 12.5288 55.2611 13.9653 54.706 15.3056C54.1508 16.6458 53.3371 17.8637 52.3113 18.8894C51.2855 19.9152 50.0677 20.7289 48.7275 21.2841C47.3872 21.8393 45.9507 22.125 44.5 22.125C41.5702 22.125 38.7604 20.9611 36.6887 18.8894C34.617 16.8178 33.4531 14.0079 33.4531 11.0781C33.4531 8.14831 34.617 5.3385 36.6887 3.26681C38.7604 1.19511 41.5702 0.0312501 44.5 0.03125ZM77.6406 0.03125C79.0913 0.03125 80.5278 0.316985 81.8681 0.872142C83.2084 1.4273 84.4261 2.24101 85.452 3.26681C86.4777 4.2926 87.2915 5.5104 87.8466 6.85067C88.4018 8.19094 88.6875 9.62743 88.6875 11.0781C88.6875 12.5288 88.4018 13.9653 87.8466 15.3056C87.2915 16.6458 86.4777 17.8637 85.452 18.8894C84.4261 19.9152 83.2084 20.7289 81.8681 21.2841C80.5278 21.8393 79.0913 22.125 77.6406 22.125C74.7108 22.125 71.901 20.9611 69.8293 18.8894C67.7576 16.8178 66.5938 14.0079 66.5938 11.0781C66.5938 8.14831 67.7576 5.3385 69.8293 3.26681C71.901 1.19511 74.7108 0.0312501 77.6406 0.03125Z" fill="white"/>
</svg>
