<svg width="61" height="61" viewBox="0 0 61 61" fill="none" xmlns="http://www.w3.org/2000/svg">
<path d="M30.5 9.53125C31.5111 9.53125 32.4809 9.93292 33.1958 10.6479C33.9108 11.3629 34.3125 12.3326 34.3125 13.3438V13.6602C31.7885 13.2365 29.2115 13.2365 26.6875 13.6602V13.3438C26.6875 12.3326 27.0892 11.3629 27.8042 10.6479C28.5191 9.93292 29.4889 9.53125 30.5 9.53125ZM22.875 13.3438V14.6438C13.9919 17.7853 7.625 26.2605 7.625 36.2188C7.625 36.7243 7.82584 37.2092 8.18333 37.5667C8.54082 37.9242 9.02568 38.125 9.53125 38.125H51.4688C51.9743 38.125 52.4592 37.9242 52.8167 37.5667C53.1742 37.2092 53.375 36.7243 53.375 36.2188C53.3756 31.4872 51.9094 26.8718 49.1783 23.008C46.4472 19.1442 42.5856 16.222 38.125 14.6438V13.3438C38.125 11.3215 37.3217 9.38203 35.8917 7.95206C34.4617 6.5221 32.5223 5.71875 30.5 5.71875C28.4777 5.71875 26.5383 6.5221 25.1083 7.95206C23.6783 9.38203 22.875 11.3215 22.875 13.3438ZM30.5 17.1562C35.2257 17.1562 39.783 18.9115 43.2877 22.0815C46.7924 25.2516 48.9946 29.6105 49.4672 34.3125H11.5328C12.0054 29.6105 14.2076 25.2516 17.7123 22.0815C21.217 18.9115 25.7743 17.1562 30.5 17.1562ZM30.5 20.9688C29.9944 20.9688 29.5096 21.1696 29.1521 21.5271C28.7946 21.8846 28.5938 22.3694 28.5938 22.875C28.5938 23.3806 28.7946 23.8654 29.1521 24.2229C29.5096 24.5804 29.9944 24.7812 30.5 24.7812C34.3849 24.7812 37.82 26.718 39.8902 29.6841C40.031 29.895 40.2125 30.0757 40.424 30.2156C40.6356 30.3555 40.8729 30.4518 41.1221 30.4988C41.3713 30.5459 41.6274 30.5427 41.8753 30.4895C42.1233 30.4363 42.3582 30.3342 42.5662 30.1891C42.7742 30.044 42.9511 29.8589 43.0867 29.6445C43.2222 29.4302 43.3136 29.1909 43.3556 28.9408C43.3975 28.6907 43.3891 28.4348 43.3309 28.1879C43.2726 27.9411 43.1657 27.7084 43.0164 27.5034C41.6123 25.485 39.7405 23.8364 37.561 22.6985C35.3814 21.5606 32.9587 20.9671 30.5 20.9688ZM9.53125 41.9375C8.01454 41.9375 6.55996 42.54 5.48748 43.6125C4.41501 44.685 3.8125 46.1395 3.8125 47.6562C3.8125 49.173 4.41501 50.6275 5.48748 51.7C6.55996 52.7725 8.01454 53.375 9.53125 53.375H51.4688C52.9855 53.375 54.44 52.7725 55.5125 51.7C56.585 50.6275 57.1875 49.173 57.1875 47.6562C57.1875 46.1395 56.585 44.685 55.5125 43.6125C54.44 42.54 52.9855 41.9375 51.4688 41.9375H9.53125ZM7.625 47.6562C7.625 47.1507 7.82584 46.6658 8.18333 46.3083C8.54082 45.9508 9.02568 45.75 9.53125 45.75H51.4688C51.9743 45.75 52.4592 45.9508 52.8167 46.3083C53.1742 46.6658 53.375 47.1507 53.375 47.6562C53.375 48.1618 53.1742 48.6467 52.8167 49.0042C52.4592 49.3617 51.9743 49.5625 51.4688 49.5625H9.53125C9.02568 49.5625 8.54082 49.3617 8.18333 49.0042C7.82584 48.6467 7.625 48.1618 7.625 47.6562Z" fill="white"/>
</svg>
