<svg width="61" height="61" viewBox="0 0 61 61" fill="none" xmlns="http://www.w3.org/2000/svg">
<path d="M23.9644 45.7499C23.9644 49.2167 25.3415 52.5414 27.7929 54.9928C30.2443 57.4442 33.569 58.8213 37.0358 58.8213H45.7501C49.2168 58.8213 52.5416 57.4442 54.993 54.9928C57.4443 52.5414 58.8215 49.2167 58.8215 45.7499V2.17847" stroke="white" stroke-width="4" stroke-linecap="round" stroke-linejoin="round"/>
<path d="M45.75 23.9643C45.75 21.6531 44.8319 19.4366 43.1977 17.8024C41.5634 16.1681 39.3469 15.25 37.0357 15.25H10.8929C8.5817 15.25 6.36519 16.1681 4.73094 17.8024C3.0967 19.4366 2.17859 21.6531 2.17859 23.9643V32.6786C2.17859 34.9897 3.0967 37.2063 4.73094 38.8405C6.36519 40.4747 8.5817 41.3929 10.8929 41.3929H15.25L20.3479 33.7679C20.7464 33.1747 21.2848 32.6888 21.9154 32.3527C22.5461 32.0167 23.2497 31.841 23.9643 31.841C24.6789 31.841 25.3825 32.0167 26.0132 32.3527C26.6438 32.6888 27.1822 33.1747 27.5807 33.7679L32.6786 41.3929H37.0357C39.3469 41.3929 41.5634 40.4747 43.1977 38.8405C44.8319 37.2063 45.75 34.9897 45.75 32.6786V23.9643Z" stroke="white" stroke-width="4" stroke-linecap="round" stroke-linejoin="round"/>
</svg>
