<?xml version="1.0" encoding="UTF-8"?>
<svg id="Ebene_1" data-name="Ebene 1" xmlns="http://www.w3.org/2000/svg" viewBox="0 0 19.37 20">
  <defs>
    <style>
      .cls-1 {
        fill: #fff;
        stroke-width: 0px;
      }
    </style>
  </defs>
  <path class="cls-1" d="M16.55,2.91c-.89-.93-1.96-1.66-3.13-2.16C12.25.25,10.99,0,9.72,0,4.41,0,.08,4.45.08,9.91c0,1.75.45,3.45,1.28,4.95l-1.36,5.14,5.11-1.38c1.41.79,3,1.21,4.61,1.21,5.31,0,9.65-4.45,9.65-9.91,0-2.65-1-5.14-2.82-7.01ZM9.72,18.15c-1.44,0-2.85-.4-4.09-1.15l-.29-.18-3.04.82.81-3.04-.19-.31c-.8-1.31-1.23-2.83-1.23-4.38C1.69,5.37,5.3,1.67,9.72,1.67c2.14,0,4.16.86,5.67,2.42.75.76,1.34,1.67,1.74,2.67.4,1,.61,2.07.6,3.16.02,4.54-3.58,8.23-8,8.23ZM14.12,11.99c-.24-.12-1.43-.72-1.65-.81-.22-.08-.38-.12-.55.12-.17.25-.62.81-.76.97-.14.17-.28.19-.53.06-.24-.12-1.02-.39-1.94-1.23-.72-.66-1.2-1.47-1.34-1.72-.14-.25-.02-.38.11-.51.11-.11.24-.29.36-.43.12-.14.17-.25.24-.41.08-.17.04-.31-.02-.43-.06-.12-.55-1.34-.74-1.84-.19-.48-.4-.42-.55-.43h-.47c-.17,0-.42.06-.64.31-.21.25-.84.85-.84,2.07s.87,2.4.98,2.56c.12.17,1.7,2.67,4.12,3.74.57.26,1.02.41,1.37.52.57.19,1.1.16,1.52.1.47-.07,1.43-.6,1.63-1.18.2-.58.2-1.07.14-1.18-.07-.11-.21-.16-.46-.28Z"/>
</svg>