<svg width="21" height="21" viewBox="0 0 21 21" fill="none" xmlns="http://www.w3.org/2000/svg">
<path d="M17.5222 3.41006C16.6297 2.48399 15.5667 1.74973 14.3951 1.25011C13.2235 0.750494 11.9668 0.49552 10.6983 0.50006C5.38324 0.50006 1.05139 4.95006 1.05139 10.4101C1.05139 12.1601 1.49917 13.8601 2.33634 15.3601L0.973511 20.5001L6.08413 19.1201C7.49563 19.9101 9.08236 20.3301 10.6983 20.3301C16.0133 20.3301 20.3452 15.8801 20.3452 10.4201C20.3452 7.77006 19.3425 5.28006 17.5222 3.41006ZM10.6983 18.6501C9.25758 18.6501 7.84608 18.2501 6.60979 17.5001L6.31776 17.3201L3.28059 18.1401L4.08856 15.1001L3.89386 14.7901C3.09344 13.477 2.66843 11.9593 2.66732 10.4101C2.66732 5.87006 6.26909 2.17006 10.6886 2.17006C12.8301 2.17006 14.8452 3.03006 16.354 4.59006C17.1011 5.35402 17.6932 6.26272 18.0959 7.26348C18.4986 8.26425 18.704 9.33717 18.7001 10.4201C18.7195 14.9601 15.1178 18.6501 10.6983 18.6501ZM15.0983 12.4901C14.8549 12.3701 13.6673 11.7701 13.4532 11.6801C13.2293 11.6001 13.0735 11.5601 12.908 11.8001C12.7425 12.0501 12.285 12.6101 12.1487 12.7701C12.0124 12.9401 11.8664 12.9601 11.6231 12.8301C11.3797 12.7101 10.6009 12.4401 9.6859 11.6001C8.96555 10.9401 8.48855 10.1301 8.34254 9.88006C8.20625 9.63006 8.32307 9.50006 8.44962 9.37006C8.5567 9.26006 8.69298 9.08006 8.80979 8.94006C8.92661 8.80006 8.97528 8.69006 9.05316 8.53006C9.13103 8.36006 9.09209 8.22006 9.03369 8.10006C8.97528 7.98006 8.48855 6.76006 8.29386 6.26006C8.09917 5.78006 7.89475 5.84006 7.74873 5.83006H7.28147C7.11599 5.83006 6.86289 5.89006 6.639 6.14006C6.42484 6.39006 5.80183 6.99006 5.80183 8.21006C5.80183 9.43006 6.6682 10.6101 6.78502 10.7701C6.90183 10.9401 8.48855 13.4401 10.9027 14.5101C11.477 14.7701 11.9248 14.9201 12.2753 15.0301C12.8496 15.2201 13.3753 15.1901 13.7939 15.1301C14.2611 15.0601 15.2248 14.5301 15.4195 13.9501C15.624 13.3701 15.624 12.8801 15.5558 12.7701C15.4877 12.6601 15.3417 12.6101 15.0983 12.4901Z" fill="black"/>
</svg>
